<mxfile modified="2023-05-14T17:20:45.605Z" host="app.diagrams.net" agent="Mozilla/5.0 (X11; Ubuntu; Linux x86_64; rv:109.0) Gecko/20100101 Firefox/112.0" etag="KhfXxkyrH4KUYv3WfpYU" version="21.1.4" type="github">
  <diagram id="Ht1M8jgEwFfnCIfOTk4-" name="Page-1">
    <mxGraphModel dx="1403" dy="1804" grid="0" gridSize="10" guides="1" tooltips="1" connect="1" arrows="1" fold="1" page="0" pageScale="1" pageWidth="1169" pageHeight="827" math="0" shadow="0">
      <root>
        <mxCell id="0" />
        <mxCell id="1" parent="0" />
        <mxCell id="1qa2345JDhDKehQNPxXo-69" style="edgeStyle=orthogonalEdgeStyle;rounded=0;orthogonalLoop=1;jettySize=auto;html=1;" parent="1" source="1qa2345JDhDKehQNPxXo-2" target="1qa2345JDhDKehQNPxXo-64" edge="1">
          <mxGeometry relative="1" as="geometry">
            <mxPoint x="30" y="-641" as="targetPoint" />
          </mxGeometry>
        </mxCell>
        <mxCell id="1qa2345JDhDKehQNPxXo-123" style="edgeStyle=orthogonalEdgeStyle;rounded=0;orthogonalLoop=1;jettySize=auto;html=1;entryX=0;entryY=0.5;entryDx=0;entryDy=0;" parent="1" source="1qa2345JDhDKehQNPxXo-2" target="1qa2345JDhDKehQNPxXo-3" edge="1">
          <mxGeometry relative="1" as="geometry" />
        </mxCell>
        <mxCell id="84fUuEfoQeRxNVpQwfGD-157" value="" style="edgeStyle=orthogonalEdgeStyle;rounded=0;orthogonalLoop=1;jettySize=auto;html=1;" edge="1" parent="1" source="1qa2345JDhDKehQNPxXo-2" target="84fUuEfoQeRxNVpQwfGD-141">
          <mxGeometry relative="1" as="geometry" />
        </mxCell>
        <mxCell id="1qa2345JDhDKehQNPxXo-2" value="AWS CLI" style="sketch=0;points=[[0,0,0],[0.25,0,0],[0.5,0,0],[0.75,0,0],[1,0,0],[0,1,0],[0.25,1,0],[0.5,1,0],[0.75,1,0],[1,1,0],[0,0.25,0],[0,0.5,0],[0,0.75,0],[1,0.25,0],[1,0.5,0],[1,0.75,0]];outlineConnect=0;fontColor=#232F3E;gradientColor=#4D72F3;gradientDirection=north;fillColor=#3334B9;strokeColor=#ffffff;dashed=0;verticalLabelPosition=bottom;verticalAlign=top;align=center;html=1;fontSize=12;fontStyle=0;aspect=fixed;shape=mxgraph.aws4.resourceIcon;resIcon=mxgraph.aws4.command_line_interface;" parent="1" vertex="1">
          <mxGeometry x="-170" y="-680" width="78" height="78" as="geometry" />
        </mxCell>
        <mxCell id="1qa2345JDhDKehQNPxXo-10" style="edgeStyle=orthogonalEdgeStyle;rounded=0;orthogonalLoop=1;jettySize=auto;html=1;entryX=-0.006;entryY=0.359;entryDx=0;entryDy=0;entryPerimeter=0;" parent="1" source="1qa2345JDhDKehQNPxXo-3" target="1qa2345JDhDKehQNPxXo-5" edge="1">
          <mxGeometry relative="1" as="geometry">
            <mxPoint x="270" y="-290" as="targetPoint" />
          </mxGeometry>
        </mxCell>
        <mxCell id="1qa2345JDhDKehQNPxXo-3" value="" style="shape=image;verticalLabelPosition=bottom;labelBackgroundColor=default;verticalAlign=top;aspect=fixed;imageAspect=0;image=https://uploads-ssl.webflow.com/6340ceb04078362242dd4eb9/636131fe1f44d41e7af2eb78_terraform-logo.png;" parent="1" vertex="1">
          <mxGeometry x="20" y="-430" width="139.26" height="139" as="geometry" />
        </mxCell>
        <mxCell id="1qa2345JDhDKehQNPxXo-17" value="" style="edgeStyle=orthogonalEdgeStyle;rounded=0;orthogonalLoop=1;jettySize=auto;html=1;" parent="1" source="1qa2345JDhDKehQNPxXo-4" target="1qa2345JDhDKehQNPxXo-16" edge="1">
          <mxGeometry relative="1" as="geometry" />
        </mxCell>
        <mxCell id="1qa2345JDhDKehQNPxXo-4" value="" style="shape=image;verticalLabelPosition=bottom;labelBackgroundColor=default;verticalAlign=top;aspect=fixed;imageAspect=0;image=https://cdn-icons-png.flaticon.com/512/4341/4341764.png;" parent="1" vertex="1">
          <mxGeometry x="20" y="-160" width="130" height="130" as="geometry" />
        </mxCell>
        <mxCell id="1qa2345JDhDKehQNPxXo-62" style="edgeStyle=orthogonalEdgeStyle;rounded=0;orthogonalLoop=1;jettySize=auto;html=1;" parent="1" source="1qa2345JDhDKehQNPxXo-16" target="1qa2345JDhDKehQNPxXo-61" edge="1">
          <mxGeometry relative="1" as="geometry">
            <Array as="points">
              <mxPoint x="390" y="-96" />
              <mxPoint x="390" y="-96" />
            </Array>
          </mxGeometry>
        </mxCell>
        <mxCell id="1qa2345JDhDKehQNPxXo-16" value="Budget rules" style="shape=image;html=1;verticalAlign=top;verticalLabelPosition=bottom;labelBackgroundColor=#ffffff;imageAspect=0;aspect=fixed;image=https://cdn1.iconfinder.com/data/icons/competitive-strategy-and-corporate-training/512/698_Balance_budget_diagram_financial_graph_bank_banking_money_business-128.png" parent="1" vertex="1">
          <mxGeometry x="220" y="-159" width="128" height="128" as="geometry" />
        </mxCell>
        <mxCell id="1qa2345JDhDKehQNPxXo-65" style="edgeStyle=orthogonalEdgeStyle;rounded=0;orthogonalLoop=1;jettySize=auto;html=1;entryX=0;entryY=0.5;entryDx=0;entryDy=0;" parent="1" source="1qa2345JDhDKehQNPxXo-19" target="1qa2345JDhDKehQNPxXo-21" edge="1">
          <mxGeometry relative="1" as="geometry">
            <Array as="points">
              <mxPoint x="400" y="-750" />
              <mxPoint x="400" y="-675" />
            </Array>
          </mxGeometry>
        </mxCell>
        <mxCell id="1qa2345JDhDKehQNPxXo-19" value="MFA device" style="sketch=0;outlineConnect=0;fontColor=#232F3E;gradientColor=none;fillColor=#BF0816;strokeColor=none;dashed=0;verticalLabelPosition=bottom;verticalAlign=top;align=center;html=1;fontSize=12;fontStyle=0;aspect=fixed;pointerEvents=1;shape=mxgraph.aws4.mfa_token;" parent="1" vertex="1">
          <mxGeometry x="45.999999999999986" y="-789.5" width="78" height="78" as="geometry" />
        </mxCell>
        <mxCell id="84fUuEfoQeRxNVpQwfGD-151" style="edgeStyle=orthogonalEdgeStyle;rounded=0;orthogonalLoop=1;jettySize=auto;html=1;exitX=0.6;exitY=1;exitDx=0;exitDy=0;exitPerimeter=0;fillColor=#fff2cc;strokeColor=#d6b656;strokeWidth=2;" edge="1" parent="1" source="1qa2345JDhDKehQNPxXo-22" target="84fUuEfoQeRxNVpQwfGD-78">
          <mxGeometry relative="1" as="geometry">
            <Array as="points">
              <mxPoint x="2067" y="-871" />
              <mxPoint x="1680" y="-871" />
            </Array>
          </mxGeometry>
        </mxCell>
        <mxCell id="1qa2345JDhDKehQNPxXo-22" value="" style="outlineConnect=0;dashed=0;verticalLabelPosition=bottom;verticalAlign=top;align=center;html=1;shape=mxgraph.aws3.internet;fillColor=#D2D3D3;gradientColor=none;" parent="1" vertex="1">
          <mxGeometry x="2019" y="-960" width="79.5" height="79.5" as="geometry" />
        </mxCell>
        <mxCell id="1qa2345JDhDKehQNPxXo-66" style="edgeStyle=orthogonalEdgeStyle;rounded=0;orthogonalLoop=1;jettySize=auto;html=1;entryX=0;entryY=0.5;entryDx=0;entryDy=0;" parent="1" source="1qa2345JDhDKehQNPxXo-64" target="1qa2345JDhDKehQNPxXo-21" edge="1">
          <mxGeometry relative="1" as="geometry">
            <Array as="points">
              <mxPoint x="400" y="-641" />
              <mxPoint x="400" y="-675" />
            </Array>
          </mxGeometry>
        </mxCell>
        <mxCell id="1qa2345JDhDKehQNPxXo-64" value="Access tocken" style="sketch=0;outlineConnect=0;fontColor=#232F3E;gradientColor=none;fillColor=#232F3D;strokeColor=none;dashed=0;verticalLabelPosition=bottom;verticalAlign=top;align=center;html=1;fontSize=12;fontStyle=0;aspect=fixed;pointerEvents=1;shape=mxgraph.aws4.saml_token;" parent="1" vertex="1">
          <mxGeometry x="40" y="-680" width="78" height="78" as="geometry" />
        </mxCell>
        <mxCell id="1qa2345JDhDKehQNPxXo-67" value="&lt;div&gt;&lt;br&gt;&lt;/div&gt;&lt;div&gt;&lt;br&gt;&lt;/div&gt;&lt;div&gt;&lt;br&gt;&lt;/div&gt;&lt;div&gt;&lt;br&gt;&lt;/div&gt;&lt;div&gt;Add role EKS permission&lt;/div&gt;&lt;div&gt;Add role ECR read&lt;/div&gt;&lt;div&gt;Add role EKS node policy&lt;/div&gt;&lt;div&gt;Create cluster - control plane units &lt;br&gt;&lt;/div&gt;&lt;div&gt;in managed VPC, etcd KMS encrypted&lt;/div&gt;&lt;div&gt;Create cluster certificate&lt;br&gt;&lt;/div&gt;&lt;div&gt;StatefulSet DB or RDS&lt;br&gt;&lt;/div&gt;&lt;div&gt;Add DaemonSet for monitoring&lt;/div&gt;&lt;div&gt;Add monitoring dashboard with endpoint&lt;br&gt;&lt;/div&gt;&lt;div&gt;Add Logging sidecars&lt;/div&gt;&lt;div&gt;Add logging storage with tiering - &lt;br&gt;&lt;/div&gt;&lt;div&gt;Add CoreDNS and Kubeproxy&lt;/div&gt;&lt;div&gt;Add bastion hosts in public subnets&lt;br&gt;&lt;/div&gt;&lt;div&gt;Add users for k8s binded to IAM roles&lt;/div&gt;&lt;div&gt;Add CNI plugin&lt;br&gt;&lt;/div&gt;" style="strokeWidth=1;shadow=0;align=center;html=1;shape=mxgraph.mockup.text.stickyNote2;fontColor=#666666;mainText=;fontSize=17;whiteSpace=wrap;fillColor=#ffffcc;strokeColor=#F62E00;noLabel=0;" parent="1" vertex="1">
          <mxGeometry x="-10" y="40" width="380" height="409" as="geometry" />
        </mxCell>
        <mxCell id="84fUuEfoQeRxNVpQwfGD-35" value="" style="group;movable=0;deletable=0;recursiveResize=0;" vertex="1" connectable="0" parent="1">
          <mxGeometry x="454" y="-798" width="2747" height="2179.5" as="geometry" />
        </mxCell>
        <mxCell id="1qa2345JDhDKehQNPxXo-116" value="Availability Zone 2" style="fillColor=none;strokeColor=#147EBA;dashed=1;verticalAlign=top;fontStyle=0;fontColor=#147EBA;whiteSpace=wrap;html=1;strokeWidth=2;" parent="84fUuEfoQeRxNVpQwfGD-35" vertex="1">
          <mxGeometry x="1194" y="460" width="420" height="1135" as="geometry" />
        </mxCell>
        <mxCell id="UEzPUAAOIrF-is8g5C7q-175" value="AWS Cloud" style="points=[[0,0],[0.25,0],[0.5,0],[0.75,0],[1,0],[1,0.25],[1,0.5],[1,0.75],[1,1],[0.75,1],[0.5,1],[0.25,1],[0,1],[0,0.75],[0,0.5],[0,0.25]];outlineConnect=0;gradientColor=none;html=1;whiteSpace=wrap;fontSize=12;fontStyle=0;shape=mxgraph.aws4.group;grIcon=mxgraph.aws4.group_aws_cloud_alt;strokeColor=#232F3E;fillColor=none;verticalAlign=top;align=center;spacingLeft=30;fontColor=#232F3E;dashed=0;labelBackgroundColor=#ffffff;container=0;pointerEvents=0;collapsible=0;recursiveResize=0;labelPosition=center;verticalLabelPosition=bottom;" parent="84fUuEfoQeRxNVpQwfGD-35" vertex="1">
          <mxGeometry width="2747" height="2179.5" as="geometry" />
        </mxCell>
        <mxCell id="1qa2345JDhDKehQNPxXo-5" value="&lt;font style=&quot;font-size: 14px;&quot;&gt;Terraform backend&lt;/font&gt;" style="fillColor=none;strokeColor=#5A6C86;dashed=1;verticalAlign=top;fontStyle=0;fontColor=#5A6C86;whiteSpace=wrap;html=1;" parent="84fUuEfoQeRxNVpQwfGD-35" vertex="1">
          <mxGeometry x="60" y="339.5" width="160" height="250.5" as="geometry" />
        </mxCell>
        <mxCell id="1qa2345JDhDKehQNPxXo-6" value="&lt;div&gt;Dynamo DB&lt;/div&gt;" style="sketch=0;points=[[0,0,0],[0.25,0,0],[0.5,0,0],[0.75,0,0],[1,0,0],[0,1,0],[0.25,1,0],[0.5,1,0],[0.75,1,0],[1,1,0],[0,0.25,0],[0,0.5,0],[0,0.75,0],[1,0.25,0],[1,0.5,0],[1,0.75,0]];outlineConnect=0;fontColor=#232F3E;gradientColor=#4D72F3;gradientDirection=north;fillColor=#3334B9;strokeColor=#ffffff;dashed=0;verticalLabelPosition=bottom;verticalAlign=top;align=center;html=1;fontSize=12;fontStyle=0;aspect=fixed;shape=mxgraph.aws4.resourceIcon;resIcon=mxgraph.aws4.dynamodb;" parent="84fUuEfoQeRxNVpQwfGD-35" vertex="1">
          <mxGeometry x="101" y="489.5" width="78" height="78" as="geometry" />
        </mxCell>
        <mxCell id="1qa2345JDhDKehQNPxXo-9" value="S3 bucket" style="sketch=0;points=[[0,0,0],[0.25,0,0],[0.5,0,0],[0.75,0,0],[1,0,0],[0,1,0],[0.25,1,0],[0.5,1,0],[0.75,1,0],[1,1,0],[0,0.25,0],[0,0.5,0],[0,0.75,0],[1,0.25,0],[1,0.5,0],[1,0.75,0]];outlineConnect=0;fontColor=#232F3E;gradientColor=#60A337;gradientDirection=north;fillColor=#277116;strokeColor=#ffffff;dashed=0;verticalLabelPosition=bottom;verticalAlign=top;align=center;html=1;fontSize=12;fontStyle=0;aspect=fixed;shape=mxgraph.aws4.resourceIcon;resIcon=mxgraph.aws4.s3;" parent="84fUuEfoQeRxNVpQwfGD-35" vertex="1">
          <mxGeometry x="100" y="376.5" width="78" height="78" as="geometry" />
        </mxCell>
        <mxCell id="1qa2345JDhDKehQNPxXo-12" value="AWS Account" style="points=[[0,0],[0.25,0],[0.5,0],[0.75,0],[1,0],[1,0.25],[1,0.5],[1,0.75],[1,1],[0.75,1],[0.5,1],[0.25,1],[0,1],[0,0.75],[0,0.5],[0,0.25]];outlineConnect=0;gradientColor=none;html=1;whiteSpace=wrap;fontSize=12;fontStyle=0;container=1;pointerEvents=0;collapsible=0;recursiveResize=0;shape=mxgraph.aws4.group;grIcon=mxgraph.aws4.group_account;strokeColor=#CD2264;fillColor=none;verticalAlign=top;align=left;spacingLeft=30;fontColor=#CD2264;dashed=0;" parent="84fUuEfoQeRxNVpQwfGD-35" vertex="1">
          <mxGeometry x="38" y="20" width="652" height="170" as="geometry" />
        </mxCell>
        <mxCell id="1qa2345JDhDKehQNPxXo-21" value="IAM group" style="swimlane;whiteSpace=wrap;html=1;" parent="1qa2345JDhDKehQNPxXo-12" vertex="1">
          <mxGeometry x="14.75" y="29.5" width="115.25" height="130" as="geometry" />
        </mxCell>
        <mxCell id="1qa2345JDhDKehQNPxXo-11" value="IAM user" style="sketch=0;outlineConnect=0;fontColor=#232F3E;gradientColor=none;fillColor=#232F3D;strokeColor=none;dashed=0;verticalLabelPosition=bottom;verticalAlign=top;align=center;html=1;fontSize=12;fontStyle=0;aspect=fixed;pointerEvents=1;shape=mxgraph.aws4.user;" parent="1qa2345JDhDKehQNPxXo-21" vertex="1">
          <mxGeometry x="32.379999999999995" y="40" width="60.5" height="60.5" as="geometry" />
        </mxCell>
        <mxCell id="1qa2345JDhDKehQNPxXo-120" value="IAM DevOps group" style="swimlane;whiteSpace=wrap;html=1;" parent="1qa2345JDhDKehQNPxXo-12" vertex="1">
          <mxGeometry x="144.75" y="29.5" width="185.25" height="130" as="geometry" />
        </mxCell>
        <mxCell id="1qa2345JDhDKehQNPxXo-121" value="user 1" style="sketch=0;outlineConnect=0;fontColor=#232F3E;gradientColor=none;fillColor=#232F3D;strokeColor=none;dashed=0;verticalLabelPosition=bottom;verticalAlign=top;align=center;html=1;fontSize=12;fontStyle=0;aspect=fixed;pointerEvents=1;shape=mxgraph.aws4.user;" parent="1qa2345JDhDKehQNPxXo-120" vertex="1">
          <mxGeometry x="19.999999999999993" y="34.75" width="60.5" height="60.5" as="geometry" />
        </mxCell>
        <mxCell id="1qa2345JDhDKehQNPxXo-122" value="user 2" style="sketch=0;outlineConnect=0;fontColor=#232F3E;gradientColor=none;fillColor=#232F3D;strokeColor=none;dashed=0;verticalLabelPosition=bottom;verticalAlign=top;align=center;html=1;fontSize=12;fontStyle=0;aspect=fixed;pointerEvents=1;shape=mxgraph.aws4.user;" parent="1qa2345JDhDKehQNPxXo-120" vertex="1">
          <mxGeometry x="100" y="34.75" width="60.5" height="60.5" as="geometry" />
        </mxCell>
        <mxCell id="1qa2345JDhDKehQNPxXo-15" value="VPC" style="points=[[0,0],[0.25,0],[0.5,0],[0.75,0],[1,0],[1,0.25],[1,0.5],[1,0.75],[1,1],[0.75,1],[0.5,1],[0.25,1],[0,1],[0,0.75],[0,0.5],[0,0.25]];outlineConnect=0;gradientColor=none;html=1;whiteSpace=wrap;fontSize=12;fontStyle=0;container=0;pointerEvents=0;collapsible=0;recursiveResize=0;shape=mxgraph.aws4.group;grIcon=mxgraph.aws4.group_vpc;strokeColor=#248814;fillColor=none;verticalAlign=top;align=left;spacingLeft=30;fontColor=#AAB7B8;dashed=0;deletable=0;movable=0;" parent="84fUuEfoQeRxNVpQwfGD-35" vertex="1">
          <mxGeometry x="559" y="699.5" width="2171" height="1347.5" as="geometry" />
        </mxCell>
        <mxCell id="84fUuEfoQeRxNVpQwfGD-2" value="Availability Zone 3" style="fillColor=none;strokeColor=#147EBA;dashed=1;verticalAlign=top;fontStyle=0;fontColor=#147EBA;whiteSpace=wrap;html=1;strokeWidth=2;" vertex="1" parent="1qa2345JDhDKehQNPxXo-15">
          <mxGeometry x="1160" y="23" width="989" height="1227" as="geometry" />
        </mxCell>
        <mxCell id="84fUuEfoQeRxNVpQwfGD-7" value="&lt;div&gt;EKS master node,&lt;br&gt;&lt;/div&gt;&lt;div&gt;Control plane&lt;/div&gt;" style="sketch=0;points=[[0,0,0],[0.25,0,0],[0.5,0,0],[0.75,0,0],[1,0,0],[0,1,0],[0.25,1,0],[0.5,1,0],[0.75,1,0],[1,1,0],[0,0.25,0],[0,0.5,0],[0,0.75,0],[1,0.25,0],[1,0.5,0],[1,0.75,0]];outlineConnect=0;fontColor=#232F3E;gradientColor=#F78E04;gradientDirection=north;fillColor=#D05C17;strokeColor=#ffffff;dashed=0;verticalLabelPosition=bottom;verticalAlign=top;align=center;html=1;fontSize=12;fontStyle=0;aspect=fixed;shape=mxgraph.aws4.resourceIcon;resIcon=mxgraph.aws4.eks;" vertex="1" parent="1qa2345JDhDKehQNPxXo-15">
          <mxGeometry x="1362" y="-174.5" width="78" height="78" as="geometry" />
        </mxCell>
        <mxCell id="84fUuEfoQeRxNVpQwfGD-131" value="Public subnet" style="points=[[0,0],[0.25,0],[0.5,0],[0.75,0],[1,0],[1,0.25],[1,0.5],[1,0.75],[1,1],[0.75,1],[0.5,1],[0.25,1],[0,1],[0,0.75],[0,0.5],[0,0.25]];outlineConnect=0;gradientColor=none;html=1;whiteSpace=wrap;fontSize=12;fontStyle=0;container=1;pointerEvents=0;collapsible=0;recursiveResize=0;shape=mxgraph.aws4.group;grIcon=mxgraph.aws4.group_security_group;grStroke=0;strokeColor=#248814;fillColor=#E9F3E6;verticalAlign=top;align=left;spacingLeft=30;fontColor=#248814;dashed=0;" vertex="1" parent="1qa2345JDhDKehQNPxXo-15">
          <mxGeometry x="651" y="173.5" width="367" height="172" as="geometry" />
        </mxCell>
        <mxCell id="84fUuEfoQeRxNVpQwfGD-132" value="Security group" style="fillColor=none;strokeColor=#DD3522;verticalAlign=top;fontStyle=0;fontColor=#DD3522;whiteSpace=wrap;html=1;" vertex="1" parent="1qa2345JDhDKehQNPxXo-15">
          <mxGeometry x="769.2345360824743" y="201.5" width="112.55927835051546" height="119" as="geometry" />
        </mxCell>
        <mxCell id="84fUuEfoQeRxNVpQwfGD-133" value="" style="sketch=0;outlineConnect=0;fontColor=#232F3E;gradientColor=none;fillColor=#4D27AA;strokeColor=none;dashed=0;verticalLabelPosition=bottom;verticalAlign=top;align=center;html=1;fontSize=12;fontStyle=0;aspect=fixed;pointerEvents=1;shape=mxgraph.aws4.application_load_balancer;" vertex="1" parent="1qa2345JDhDKehQNPxXo-15">
          <mxGeometry x="793.2545871559632" y="234.5" width="65.6559633027523" height="65.6559633027523" as="geometry" />
        </mxCell>
        <mxCell id="84fUuEfoQeRxNVpQwfGD-169" value="Private subnet" style="points=[[0,0],[0.25,0],[0.5,0],[0.75,0],[1,0],[1,0.25],[1,0.5],[1,0.75],[1,1],[0.75,1],[0.5,1],[0.25,1],[0,1],[0,0.75],[0,0.5],[0,0.25]];outlineConnect=0;gradientColor=none;html=1;whiteSpace=wrap;fontSize=12;fontStyle=0;container=1;pointerEvents=0;collapsible=0;recursiveResize=0;shape=mxgraph.aws4.group;grIcon=mxgraph.aws4.group_security_group;grStroke=0;strokeColor=#147EBA;fillColor=#E6F2F8;verticalAlign=top;align=left;spacingLeft=30;fontColor=#147EBA;dashed=0;" vertex="1" parent="1qa2345JDhDKehQNPxXo-15">
          <mxGeometry x="1169" y="174" width="970" height="1054" as="geometry" />
        </mxCell>
        <mxCell id="84fUuEfoQeRxNVpQwfGD-170" value="Node Group" style="points=[[0,0],[0.25,0],[0.5,0],[0.75,0],[1,0],[1,0.25],[1,0.5],[1,0.75],[1,1],[0.75,1],[0.5,1],[0.25,1],[0,1],[0,0.75],[0,0.5],[0,0.25]];outlineConnect=0;gradientColor=none;html=1;whiteSpace=wrap;fontSize=12;fontStyle=0;container=1;pointerEvents=0;collapsible=0;recursiveResize=0;shape=mxgraph.aws4.groupCenter;grIcon=mxgraph.aws4.group_auto_scaling_group;grStroke=1;strokeColor=#D86613;fillColor=none;verticalAlign=top;align=center;fontColor=#D86613;dashed=1;spacingTop=25;" vertex="1" parent="84fUuEfoQeRxNVpQwfGD-169">
          <mxGeometry x="29" y="53" width="314" height="165" as="geometry" />
        </mxCell>
        <mxCell id="84fUuEfoQeRxNVpQwfGD-258" value="Kubernetes Cluster" style="swimlane;whiteSpace=wrap;html=1;fillColor=none;fontColor=#0F0F0F;strokeColor=#3A5431;strokeWidth=2;swimlaneLine=0;rounded=1;shadow=0;glass=0;" vertex="1" parent="84fUuEfoQeRxNVpQwfGD-169">
          <mxGeometry x="8" y="36.5" width="943" height="1000.5" as="geometry" />
        </mxCell>
        <mxCell id="84fUuEfoQeRxNVpQwfGD-175" value="Public subnet" style="points=[[0,0],[0.25,0],[0.5,0],[0.75,0],[1,0],[1,0.25],[1,0.5],[1,0.75],[1,1],[0.75,1],[0.5,1],[0.25,1],[0,1],[0,0.75],[0,0.5],[0,0.25]];outlineConnect=0;gradientColor=none;html=1;whiteSpace=wrap;fontSize=12;fontStyle=0;container=1;pointerEvents=0;collapsible=0;recursiveResize=0;shape=mxgraph.aws4.group;grIcon=mxgraph.aws4.group_security_group;grStroke=0;strokeColor=#248814;fillColor=#E9F3E6;verticalAlign=top;align=left;spacingLeft=30;fontColor=#248814;dashed=0;" vertex="1" parent="1qa2345JDhDKehQNPxXo-15">
          <mxGeometry x="1346" y="45" width="534" height="120" as="geometry" />
        </mxCell>
        <mxCell id="84fUuEfoQeRxNVpQwfGD-188" value="Security group" style="fillColor=none;strokeColor=#DD3522;verticalAlign=top;fontStyle=0;fontColor=#DD3522;whiteSpace=wrap;html=1;" vertex="1" parent="84fUuEfoQeRxNVpQwfGD-175">
          <mxGeometry x="110" y="9" width="107" height="101.5" as="geometry" />
        </mxCell>
        <mxCell id="84fUuEfoQeRxNVpQwfGD-173" value="ALB" style="sketch=0;outlineConnect=0;fontColor=#232F3E;gradientColor=none;fillColor=#4D27AA;strokeColor=none;dashed=0;verticalLabelPosition=middle;verticalAlign=middle;align=left;html=1;fontSize=12;fontStyle=0;aspect=fixed;pointerEvents=1;shape=mxgraph.aws4.application_load_balancer;labelPosition=right;" vertex="1" parent="84fUuEfoQeRxNVpQwfGD-175">
          <mxGeometry x="126" y="35.5" width="62" height="62" as="geometry" />
        </mxCell>
        <mxCell id="84fUuEfoQeRxNVpQwfGD-179" style="edgeStyle=orthogonalEdgeStyle;rounded=0;orthogonalLoop=1;jettySize=auto;html=1;" edge="1" parent="1qa2345JDhDKehQNPxXo-15" source="84fUuEfoQeRxNVpQwfGD-178" target="84fUuEfoQeRxNVpQwfGD-173">
          <mxGeometry relative="1" as="geometry">
            <Array as="points">
              <mxPoint x="1490" y="283" />
            </Array>
          </mxGeometry>
        </mxCell>
        <mxCell id="84fUuEfoQeRxNVpQwfGD-181" style="edgeStyle=orthogonalEdgeStyle;rounded=0;orthogonalLoop=1;jettySize=auto;html=1;entryX=0.995;entryY=0.63;entryDx=0;entryDy=0;entryPerimeter=0;fillColor=#fff2cc;strokeColor=#d6b656;strokeWidth=1;" edge="1" parent="1qa2345JDhDKehQNPxXo-15" source="84fUuEfoQeRxNVpQwfGD-173" target="84fUuEfoQeRxNVpQwfGD-180">
          <mxGeometry relative="1" as="geometry">
            <Array as="points">
              <mxPoint x="1519" y="333" />
            </Array>
          </mxGeometry>
        </mxCell>
        <mxCell id="84fUuEfoQeRxNVpQwfGD-247" style="edgeStyle=orthogonalEdgeStyle;rounded=0;orthogonalLoop=1;jettySize=auto;html=1;exitX=0.28;exitY=0.99;exitDx=0;exitDy=0;exitPerimeter=0;entryX=0.9;entryY=0.2;entryDx=0;entryDy=0;entryPerimeter=0;fillColor=#fff2cc;strokeColor=#d6b656;strokeWidth=1;" edge="1" parent="1qa2345JDhDKehQNPxXo-15" source="84fUuEfoQeRxNVpQwfGD-180" target="84fUuEfoQeRxNVpQwfGD-218">
          <mxGeometry relative="1" as="geometry">
            <Array as="points">
              <mxPoint x="1420" y="350" />
              <mxPoint x="1420" y="487" />
            </Array>
          </mxGeometry>
        </mxCell>
        <mxCell id="84fUuEfoQeRxNVpQwfGD-271" style="edgeStyle=orthogonalEdgeStyle;rounded=0;orthogonalLoop=1;jettySize=auto;html=1;exitX=0.72;exitY=0.99;exitDx=0;exitDy=0;exitPerimeter=0;entryX=0.5;entryY=0;entryDx=0;entryDy=0;entryPerimeter=0;fillColor=#fff2cc;strokeColor=#d6b656;" edge="1" parent="1qa2345JDhDKehQNPxXo-15" source="84fUuEfoQeRxNVpQwfGD-180" target="84fUuEfoQeRxNVpQwfGD-243">
          <mxGeometry relative="1" as="geometry">
            <Array as="points">
              <mxPoint x="1494" y="350" />
              <mxPoint x="1494" y="379" />
              <mxPoint x="1479" y="379" />
            </Array>
          </mxGeometry>
        </mxCell>
        <mxCell id="84fUuEfoQeRxNVpQwfGD-180" value="Nginx HPA" style="sketch=0;html=1;dashed=0;whitespace=wrap;fillColor=#2875E2;strokeColor=#ffffff;points=[[0.005,0.63,0],[0.1,0.2,0],[0.9,0.2,0],[0.5,0,0],[0.995,0.63,0],[0.72,0.99,0],[0.5,1,0],[0.28,0.99,0]];verticalLabelPosition=bottom;align=center;verticalAlign=top;shape=mxgraph.kubernetes.icon;prIcon=hpa" vertex="1" parent="1qa2345JDhDKehQNPxXo-15">
          <mxGeometry x="1429" y="302.5" width="50" height="48" as="geometry" />
        </mxCell>
        <mxCell id="84fUuEfoQeRxNVpQwfGD-178" value="&lt;div&gt;Ingress Controller&lt;br&gt;&lt;/div&gt;" style="sketch=0;html=1;dashed=0;whitespace=wrap;fillColor=#2875E2;strokeColor=#ffffff;points=[[0.005,0.63,0],[0.1,0.2,0],[0.9,0.2,0],[0.5,0,0],[0.995,0.63,0],[0.72,0.99,0],[0.5,1,0],[0.28,0.99,0]];verticalLabelPosition=bottom;align=center;verticalAlign=top;shape=mxgraph.kubernetes.icon;prIcon=ing" vertex="1" parent="1qa2345JDhDKehQNPxXo-15">
          <mxGeometry x="1227" y="239.5" width="50" height="48" as="geometry" />
        </mxCell>
        <mxCell id="84fUuEfoQeRxNVpQwfGD-186" value="EC2" style="points=[[0,0],[0.25,0],[0.5,0],[0.75,0],[1,0],[1,0.25],[1,0.5],[1,0.75],[1,1],[0.75,1],[0.5,1],[0.25,1],[0,1],[0,0.75],[0,0.5],[0,0.25]];outlineConnect=0;html=1;whiteSpace=wrap;fontSize=12;fontStyle=0;container=0;pointerEvents=0;collapsible=0;recursiveResize=0;shape=mxgraph.aws4.group;grIcon=mxgraph.aws4.group_ec2_instance_contents;strokeColor=#d6b656;fillColor=#eeeeec;verticalAlign=top;align=left;spacingLeft=30;dashed=0;" vertex="1" parent="1qa2345JDhDKehQNPxXo-15">
          <mxGeometry x="1207" y="499.5" width="184" height="227.5" as="geometry" />
        </mxCell>
        <mxCell id="84fUuEfoQeRxNVpQwfGD-213" value="PV" style="sketch=0;html=1;dashed=0;whitespace=wrap;fillColor=#2875E2;strokeColor=#ffffff;points=[[0.005,0.63,0],[0.1,0.2,0],[0.9,0.2,0],[0.5,0,0],[0.995,0.63,0],[0.72,0.99,0],[0.5,1,0],[0.28,0.99,0]];verticalLabelPosition=bottom;align=center;verticalAlign=top;shape=mxgraph.kubernetes.icon;prIcon=pv" vertex="1" parent="1qa2345JDhDKehQNPxXo-15">
          <mxGeometry x="1798" y="1077.75" width="50" height="48" as="geometry" />
        </mxCell>
        <mxCell id="84fUuEfoQeRxNVpQwfGD-212" value="PVC" style="sketch=0;html=1;dashed=0;whitespace=wrap;fillColor=#2875E2;strokeColor=#ffffff;points=[[0.005,0.63,0],[0.1,0.2,0],[0.9,0.2,0],[0.5,0,0],[0.995,0.63,0],[0.72,0.99,0],[0.5,1,0],[0.28,0.99,0]];verticalLabelPosition=bottom;align=center;verticalAlign=top;shape=mxgraph.kubernetes.icon;prIcon=pvc" vertex="1" parent="1qa2345JDhDKehQNPxXo-15">
          <mxGeometry x="1615" y="1066.5" width="50" height="48" as="geometry" />
        </mxCell>
        <mxCell id="84fUuEfoQeRxNVpQwfGD-218" value="&lt;div&gt;NodePort&lt;/div&gt;&lt;div&gt;30001&lt;br&gt;&lt;/div&gt;" style="sketch=0;html=1;dashed=0;whitespace=wrap;fillColor=#2875E2;strokeColor=#ffffff;points=[[0.005,0.63,0],[0.1,0.2,0],[0.9,0.2,0],[0.5,0,0],[0.995,0.63,0],[0.72,0.99,0],[0.5,1,0],[0.28,0.99,0]];verticalLabelPosition=bottom;align=center;verticalAlign=top;shape=mxgraph.kubernetes.icon;prIcon=node" vertex="1" parent="1qa2345JDhDKehQNPxXo-15">
          <mxGeometry x="1322" y="477.5" width="50" height="48" as="geometry" />
        </mxCell>
        <mxCell id="84fUuEfoQeRxNVpQwfGD-267" style="edgeStyle=orthogonalEdgeStyle;rounded=0;orthogonalLoop=1;jettySize=auto;html=1;exitX=0.995;exitY=0.63;exitDx=0;exitDy=0;exitPerimeter=0;" edge="1" parent="1qa2345JDhDKehQNPxXo-15" source="84fUuEfoQeRxNVpQwfGD-210" target="84fUuEfoQeRxNVpQwfGD-213">
          <mxGeometry relative="1" as="geometry">
            <Array as="points">
              <mxPoint x="1782" y="1152" />
              <mxPoint x="1782" y="1102" />
            </Array>
          </mxGeometry>
        </mxCell>
        <mxCell id="84fUuEfoQeRxNVpQwfGD-210" value="StorageClass" style="sketch=0;html=1;dashed=0;whitespace=wrap;fillColor=#2875E2;strokeColor=#ffffff;points=[[0.005,0.63,0],[0.1,0.2,0],[0.9,0.2,0],[0.5,0,0],[0.995,0.63,0],[0.72,0.99,0],[0.5,1,0],[0.28,0.99,0]];verticalLabelPosition=bottom;align=center;verticalAlign=top;shape=mxgraph.kubernetes.icon;prIcon=sc" vertex="1" parent="1qa2345JDhDKehQNPxXo-15">
          <mxGeometry x="1719" y="1121.5" width="51" height="48" as="geometry" />
        </mxCell>
        <mxCell id="84fUuEfoQeRxNVpQwfGD-214" style="edgeStyle=orthogonalEdgeStyle;rounded=0;orthogonalLoop=1;jettySize=auto;html=1;entryX=0.005;entryY=0.63;entryDx=0;entryDy=0;entryPerimeter=0;" edge="1" parent="1qa2345JDhDKehQNPxXo-15" source="84fUuEfoQeRxNVpQwfGD-212" target="84fUuEfoQeRxNVpQwfGD-210">
          <mxGeometry relative="1" as="geometry" />
        </mxCell>
        <mxCell id="84fUuEfoQeRxNVpQwfGD-198" value="RoleBinding" style="sketch=0;html=1;dashed=0;whitespace=wrap;fillColor=#2875E2;strokeColor=#ffffff;points=[[0.005,0.63,0],[0.1,0.2,0],[0.9,0.2,0],[0.5,0,0],[0.995,0.63,0],[0.72,0.99,0],[0.5,1,0],[0.28,0.99,0]];verticalLabelPosition=bottom;align=center;verticalAlign=top;shape=mxgraph.kubernetes.icon;prIcon=rb" vertex="1" parent="1qa2345JDhDKehQNPxXo-15">
          <mxGeometry x="1275" y="1126.5" width="50" height="48" as="geometry" />
        </mxCell>
        <mxCell id="84fUuEfoQeRxNVpQwfGD-195" value="Role" style="sketch=0;html=1;dashed=0;whitespace=wrap;fillColor=#2875E2;strokeColor=#ffffff;points=[[0.005,0.63,0],[0.1,0.2,0],[0.9,0.2,0],[0.5,0,0],[0.995,0.63,0],[0.72,0.99,0],[0.5,1,0],[0.28,0.99,0]];verticalLabelPosition=bottom;align=center;verticalAlign=top;shape=mxgraph.kubernetes.icon;prIcon=role" vertex="1" parent="1qa2345JDhDKehQNPxXo-15">
          <mxGeometry x="1201" y="1126.5" width="50" height="48" as="geometry" />
        </mxCell>
        <mxCell id="84fUuEfoQeRxNVpQwfGD-196" value="Group" style="sketch=0;html=1;dashed=0;whitespace=wrap;fillColor=#2875E2;strokeColor=#ffffff;points=[[0.005,0.63,0],[0.1,0.2,0],[0.9,0.2,0],[0.5,0,0],[0.995,0.63,0],[0.72,0.99,0],[0.5,1,0],[0.28,0.99,0]];verticalLabelPosition=bottom;align=center;verticalAlign=top;shape=mxgraph.kubernetes.icon;prIcon=group" vertex="1" parent="1qa2345JDhDKehQNPxXo-15">
          <mxGeometry x="1199" y="1006.5" width="50" height="48" as="geometry" />
        </mxCell>
        <mxCell id="84fUuEfoQeRxNVpQwfGD-192" value="User" style="sketch=0;html=1;dashed=0;whitespace=wrap;fillColor=#2875E2;strokeColor=#ffffff;points=[[0.005,0.63,0],[0.1,0.2,0],[0.9,0.2,0],[0.5,0,0],[0.995,0.63,0],[0.72,0.99,0],[0.5,1,0],[0.28,0.99,0]];verticalLabelPosition=bottom;align=center;verticalAlign=top;shape=mxgraph.kubernetes.icon;prIcon=user" vertex="1" parent="1qa2345JDhDKehQNPxXo-15">
          <mxGeometry x="1299" y="1050.5" width="50" height="48" as="geometry" />
        </mxCell>
        <mxCell id="84fUuEfoQeRxNVpQwfGD-202" value="" style="edgeStyle=orthogonalEdgeStyle;rounded=0;orthogonalLoop=1;jettySize=auto;html=1;" edge="1" parent="1qa2345JDhDKehQNPxXo-15" source="84fUuEfoQeRxNVpQwfGD-195" target="84fUuEfoQeRxNVpQwfGD-198">
          <mxGeometry relative="1" as="geometry" />
        </mxCell>
        <mxCell id="84fUuEfoQeRxNVpQwfGD-208" style="edgeStyle=orthogonalEdgeStyle;rounded=0;orthogonalLoop=1;jettySize=auto;html=1;entryX=0.5;entryY=0;entryDx=0;entryDy=0;entryPerimeter=0;" edge="1" parent="1qa2345JDhDKehQNPxXo-15" source="84fUuEfoQeRxNVpQwfGD-192" target="84fUuEfoQeRxNVpQwfGD-198">
          <mxGeometry relative="1" as="geometry">
            <Array as="points">
              <mxPoint x="1287" y="1065.5" />
              <mxPoint x="1287" y="1096.5" />
              <mxPoint x="1300" y="1096.5" />
            </Array>
          </mxGeometry>
        </mxCell>
        <mxCell id="84fUuEfoQeRxNVpQwfGD-199" style="edgeStyle=orthogonalEdgeStyle;rounded=0;orthogonalLoop=1;jettySize=auto;html=1;entryX=0.5;entryY=0;entryDx=0;entryDy=0;entryPerimeter=0;" edge="1" parent="1qa2345JDhDKehQNPxXo-15" source="84fUuEfoQeRxNVpQwfGD-196" target="84fUuEfoQeRxNVpQwfGD-192">
          <mxGeometry relative="1" as="geometry" />
        </mxCell>
        <mxCell id="84fUuEfoQeRxNVpQwfGD-182" value="Node Group" style="points=[[0,0],[0.25,0],[0.5,0],[0.75,0],[1,0],[1,0.25],[1,0.5],[1,0.75],[1,1],[0.75,1],[0.5,1],[0.25,1],[0,1],[0,0.75],[0,0.5],[0,0.25]];outlineConnect=0;gradientColor=none;html=1;whiteSpace=wrap;fontSize=12;fontStyle=0;container=1;pointerEvents=0;collapsible=0;recursiveResize=0;shape=mxgraph.aws4.groupCenter;grIcon=mxgraph.aws4.group_auto_scaling_group;grStroke=1;strokeColor=#D86613;fillColor=none;verticalAlign=top;align=center;fontColor=#D86613;dashed=1;spacingTop=25;" vertex="1" parent="1qa2345JDhDKehQNPxXo-15">
          <mxGeometry x="1191" y="410" width="793" height="385" as="geometry" />
        </mxCell>
        <mxCell id="84fUuEfoQeRxNVpQwfGD-269" value="EC2" style="points=[[0,0],[0.25,0],[0.5,0],[0.75,0],[1,0],[1,0.25],[1,0.5],[1,0.75],[1,1],[0.75,1],[0.5,1],[0.25,1],[0,1],[0,0.75],[0,0.5],[0,0.25]];outlineConnect=0;html=1;whiteSpace=wrap;fontSize=12;fontStyle=0;container=0;pointerEvents=0;collapsible=0;recursiveResize=0;shape=mxgraph.aws4.group;grIcon=mxgraph.aws4.group_ec2_instance_contents;strokeColor=#d6b656;fillColor=#eeeeec;verticalAlign=top;align=left;spacingLeft=30;dashed=0;" vertex="1" parent="84fUuEfoQeRxNVpQwfGD-182">
          <mxGeometry x="208" y="89.5" width="120" height="227.5" as="geometry" />
        </mxCell>
        <mxCell id="84fUuEfoQeRxNVpQwfGD-260" style="edgeStyle=orthogonalEdgeStyle;rounded=0;orthogonalLoop=1;jettySize=auto;html=1;exitX=0.1;exitY=0.2;exitDx=0;exitDy=0;exitPerimeter=0;entryX=0.005;entryY=0.63;entryDx=0;entryDy=0;entryPerimeter=0;" edge="1" parent="1qa2345JDhDKehQNPxXo-15" source="84fUuEfoQeRxNVpQwfGD-193" target="84fUuEfoQeRxNVpQwfGD-225">
          <mxGeometry relative="1" as="geometry" />
        </mxCell>
        <mxCell id="84fUuEfoQeRxNVpQwfGD-193" value="SarviceAccount" style="sketch=0;html=1;dashed=0;whitespace=wrap;fillColor=#2875E2;strokeColor=#ffffff;points=[[0.005,0.63,0],[0.1,0.2,0],[0.9,0.2,0],[0.5,0,0],[0.995,0.63,0],[0.72,0.99,0],[0.5,1,0],[0.28,0.99,0]];verticalLabelPosition=bottom;align=center;verticalAlign=top;shape=mxgraph.kubernetes.icon;prIcon=sa" vertex="1" parent="1qa2345JDhDKehQNPxXo-15">
          <mxGeometry x="1911" y="723" width="50" height="48" as="geometry" />
        </mxCell>
        <mxCell id="84fUuEfoQeRxNVpQwfGD-261" style="edgeStyle=orthogonalEdgeStyle;rounded=0;orthogonalLoop=1;jettySize=auto;html=1;exitX=0.1;exitY=0.2;exitDx=0;exitDy=0;exitPerimeter=0;entryX=0.005;entryY=0.63;entryDx=0;entryDy=0;entryPerimeter=0;" edge="1" parent="1qa2345JDhDKehQNPxXo-15" source="84fUuEfoQeRxNVpQwfGD-225" target="84fUuEfoQeRxNVpQwfGD-255">
          <mxGeometry relative="1" as="geometry">
            <Array as="points">
              <mxPoint x="1891" y="663" />
              <mxPoint x="1891" y="615" />
            </Array>
          </mxGeometry>
        </mxCell>
        <mxCell id="84fUuEfoQeRxNVpQwfGD-225" value="Pod" style="sketch=0;html=1;dashed=0;whitespace=wrap;fillColor=#2875E2;strokeColor=#ffffff;points=[[0.005,0.63,0],[0.1,0.2,0],[0.9,0.2,0],[0.5,0,0],[0.995,0.63,0],[0.72,0.99,0],[0.5,1,0],[0.28,0.99,0]];verticalLabelPosition=bottom;align=center;verticalAlign=top;shape=mxgraph.kubernetes.icon;prIcon=pod" vertex="1" parent="1qa2345JDhDKehQNPxXo-15">
          <mxGeometry x="1911" y="653" width="50" height="48" as="geometry" />
        </mxCell>
        <mxCell id="84fUuEfoQeRxNVpQwfGD-255" value="k8s API" style="sketch=0;html=1;dashed=0;whitespace=wrap;fillColor=#2875E2;strokeColor=#ffffff;points=[[0.005,0.63,0],[0.1,0.2,0],[0.9,0.2,0],[0.5,0,0],[0.995,0.63,0],[0.72,0.99,0],[0.5,1,0],[0.28,0.99,0]];verticalLabelPosition=bottom;align=center;verticalAlign=top;shape=mxgraph.kubernetes.icon;prIcon=api" vertex="1" parent="1qa2345JDhDKehQNPxXo-15">
          <mxGeometry x="1911" y="584.5" width="50" height="48" as="geometry" />
        </mxCell>
        <mxCell id="84fUuEfoQeRxNVpQwfGD-243" value="&lt;div&gt;NodePort&lt;/div&gt;&lt;div&gt;30001&lt;br&gt;&lt;/div&gt;" style="sketch=0;html=1;dashed=0;whitespace=wrap;fillColor=#2875E2;strokeColor=#ffffff;points=[[0.005,0.63,0],[0.1,0.2,0],[0.9,0.2,0],[0.5,0,0],[0.995,0.63,0],[0.72,0.99,0],[0.5,1,0],[0.28,0.99,0]];verticalLabelPosition=bottom;align=center;verticalAlign=top;shape=mxgraph.kubernetes.icon;prIcon=node" vertex="1" parent="1qa2345JDhDKehQNPxXo-15">
          <mxGeometry x="1454" y="477.5" width="50" height="48" as="geometry" />
        </mxCell>
        <mxCell id="1qa2345JDhDKehQNPxXo-61" value="Pricing" style="shape=image;html=1;verticalAlign=top;verticalLabelPosition=bottom;labelBackgroundColor=#ffffff;imageAspect=0;aspect=fixed;image=https://cdn1.iconfinder.com/data/icons/office-171/32/office-01-128.png" parent="84fUuEfoQeRxNVpQwfGD-35" vertex="1">
          <mxGeometry x="70" y="630.5" width="128" height="128" as="geometry" />
        </mxCell>
        <mxCell id="1qa2345JDhDKehQNPxXo-70" value="ECR registry" style="sketch=0;points=[[0,0,0],[0.25,0,0],[0.5,0,0],[0.75,0,0],[1,0,0],[0,1,0],[0.25,1,0],[0.5,1,0],[0.75,1,0],[1,1,0],[0,0.25,0],[0,0.5,0],[0,0.75,0],[1,0.25,0],[1,0.5,0],[1,0.75,0]];outlineConnect=0;fontColor=#232F3E;gradientColor=#F78E04;gradientDirection=north;fillColor=#D05C17;strokeColor=#ffffff;dashed=0;verticalLabelPosition=bottom;verticalAlign=top;align=center;html=1;fontSize=12;fontStyle=0;aspect=fixed;shape=mxgraph.aws4.resourceIcon;resIcon=mxgraph.aws4.ecr;" parent="84fUuEfoQeRxNVpQwfGD-35" vertex="1">
          <mxGeometry x="873" y="2078" width="78" height="78" as="geometry" />
        </mxCell>
        <mxCell id="1qa2345JDhDKehQNPxXo-81" value="AMI registry" style="image;aspect=fixed;perimeter=ellipsePerimeter;html=1;align=center;shadow=0;dashed=0;fontColor=#4277BB;labelBackgroundColor=default;fontSize=12;spacingTop=3;image=img/lib/ibm/vpc/ImageService.svg;" parent="84fUuEfoQeRxNVpQwfGD-35" vertex="1">
          <mxGeometry x="567" y="2082.75" width="68.5" height="68.5" as="geometry" />
        </mxCell>
        <mxCell id="1qa2345JDhDKehQNPxXo-84" style="edgeStyle=orthogonalEdgeStyle;rounded=0;orthogonalLoop=1;jettySize=auto;html=1;exitX=0;exitY=0.5;exitDx=0;exitDy=0;exitPerimeter=0;" parent="84fUuEfoQeRxNVpQwfGD-35" source="1qa2345JDhDKehQNPxXo-82" target="1qa2345JDhDKehQNPxXo-81" edge="1">
          <mxGeometry relative="1" as="geometry" />
        </mxCell>
        <mxCell id="1qa2345JDhDKehQNPxXo-82" value="Image builder" style="sketch=0;points=[[0,0,0],[0.25,0,0],[0.5,0,0],[0.75,0,0],[1,0,0],[0,1,0],[0.25,1,0],[0.5,1,0],[0.75,1,0],[1,1,0],[0,0.25,0],[0,0.5,0],[0,0.75,0],[1,0.25,0],[1,0.5,0],[1,0.75,0]];outlineConnect=0;fontColor=#232F3E;gradientColor=#F78E04;gradientDirection=north;fillColor=#D05C17;strokeColor=#ffffff;dashed=0;verticalLabelPosition=bottom;verticalAlign=top;align=center;html=1;fontSize=12;fontStyle=0;aspect=fixed;shape=mxgraph.aws4.resourceIcon;resIcon=mxgraph.aws4.ec2_image_builder;" parent="84fUuEfoQeRxNVpQwfGD-35" vertex="1">
          <mxGeometry x="688" y="2081.5" width="71" height="71" as="geometry" />
        </mxCell>
        <mxCell id="84fUuEfoQeRxNVpQwfGD-3" value="AWS managed VPC for EKS Control Plane" style="points=[[0,0],[0.25,0],[0.5,0],[0.75,0],[1,0],[1,0.25],[1,0.5],[1,0.75],[1,1],[0.75,1],[0.5,1],[0.25,1],[0,1],[0,0.75],[0,0.5],[0,0.25]];outlineConnect=0;gradientColor=none;html=1;whiteSpace=wrap;fontSize=12;fontStyle=0;container=1;pointerEvents=0;collapsible=0;recursiveResize=0;shape=mxgraph.aws4.group;grIcon=mxgraph.aws4.group_vpc;strokeColor=#248814;fillColor=none;verticalAlign=top;align=left;spacingLeft=30;fontColor=#AAB7B8;dashed=0;" vertex="1" parent="84fUuEfoQeRxNVpQwfGD-35">
          <mxGeometry x="679" y="298" width="1541" height="353.5" as="geometry" />
        </mxCell>
        <mxCell id="84fUuEfoQeRxNVpQwfGD-164" value="Availability Zone 3" style="fillColor=none;strokeColor=#147EBA;dashed=1;verticalAlign=top;fontStyle=0;fontColor=#147EBA;whiteSpace=wrap;html=1;strokeWidth=2;" vertex="1" parent="84fUuEfoQeRxNVpQwfGD-3">
          <mxGeometry x="1154" y="158" width="248" height="184" as="geometry" />
        </mxCell>
        <mxCell id="84fUuEfoQeRxNVpQwfGD-25" style="edgeStyle=orthogonalEdgeStyle;rounded=0;orthogonalLoop=1;jettySize=auto;html=1;entryX=0.5;entryY=0;entryDx=0;entryDy=0;entryPerimeter=0;fillColor=#0050ef;strokeColor=#001DBC;" edge="1" parent="84fUuEfoQeRxNVpQwfGD-35" source="84fUuEfoQeRxNVpQwfGD-10" target="84fUuEfoQeRxNVpQwfGD-15">
          <mxGeometry relative="1" as="geometry" />
        </mxCell>
        <mxCell id="84fUuEfoQeRxNVpQwfGD-80" style="edgeStyle=orthogonalEdgeStyle;rounded=0;orthogonalLoop=1;jettySize=auto;html=1;fillColor=#0050ef;strokeColor=#001DBC;" edge="1" parent="84fUuEfoQeRxNVpQwfGD-35" source="84fUuEfoQeRxNVpQwfGD-78" target="84fUuEfoQeRxNVpQwfGD-10">
          <mxGeometry relative="1" as="geometry">
            <Array as="points">
              <mxPoint x="1215" y="99" />
              <mxPoint x="1390" y="99" />
            </Array>
          </mxGeometry>
        </mxCell>
        <mxCell id="84fUuEfoQeRxNVpQwfGD-78" value="&lt;b&gt;IGW&lt;/b&gt;" style="sketch=0;outlineConnect=0;fontColor=#232F3E;gradientColor=none;fillColor=#4D27AA;strokeColor=none;dashed=0;verticalLabelPosition=middle;verticalAlign=middle;align=left;html=1;fontSize=12;fontStyle=0;aspect=fixed;pointerEvents=1;shape=mxgraph.aws4.internet_gateway;labelPosition=right;" vertex="1" parent="84fUuEfoQeRxNVpQwfGD-35">
          <mxGeometry x="1175.5" y="-46" width="78" height="78" as="geometry" />
        </mxCell>
        <mxCell id="84fUuEfoQeRxNVpQwfGD-103" value="Availability Zone 1" style="fillColor=none;strokeColor=#147EBA;dashed=1;verticalAlign=top;fontStyle=0;fontColor=#147EBA;whiteSpace=wrap;html=1;strokeWidth=2;" vertex="1" parent="84fUuEfoQeRxNVpQwfGD-35">
          <mxGeometry x="690" y="462" width="398" height="1133" as="geometry" />
        </mxCell>
        <mxCell id="84fUuEfoQeRxNVpQwfGD-26" value="" style="group" vertex="1" connectable="0" parent="84fUuEfoQeRxNVpQwfGD-35">
          <mxGeometry x="749" y="483" width="312" height="157" as="geometry" />
        </mxCell>
        <mxCell id="84fUuEfoQeRxNVpQwfGD-14" value="EC2 instance contents" style="points=[[0,0],[0.25,0],[0.5,0],[0.75,0],[1,0],[1,0.25],[1,0.5],[1,0.75],[1,1],[0.75,1],[0.5,1],[0.25,1],[0,1],[0,0.75],[0,0.5],[0,0.25]];outlineConnect=0;gradientColor=none;html=1;whiteSpace=wrap;fontSize=12;fontStyle=0;container=1;pointerEvents=0;collapsible=0;recursiveResize=0;shape=mxgraph.aws4.group;grIcon=mxgraph.aws4.group_ec2_instance_contents;strokeColor=#D86613;fillColor=none;verticalAlign=top;align=left;spacingLeft=30;fontColor=#D86613;dashed=0;" vertex="1" parent="84fUuEfoQeRxNVpQwfGD-26">
          <mxGeometry width="312" height="157" as="geometry" />
        </mxCell>
        <mxCell id="84fUuEfoQeRxNVpQwfGD-16" value="&lt;font style=&quot;font-size: 13px;&quot;&gt;API server&lt;/font&gt;" style="rounded=1;whiteSpace=wrap;html=1;fontSize=13;" vertex="1" parent="84fUuEfoQeRxNVpQwfGD-26">
          <mxGeometry x="21.5" y="36.5" width="180" height="23" as="geometry" />
        </mxCell>
        <mxCell id="84fUuEfoQeRxNVpQwfGD-18" value="Controller Manager" style="rounded=1;whiteSpace=wrap;html=1;fontSize=13;" vertex="1" parent="84fUuEfoQeRxNVpQwfGD-26">
          <mxGeometry x="20" y="67" width="180" height="23" as="geometry" />
        </mxCell>
        <mxCell id="84fUuEfoQeRxNVpQwfGD-19" value="Scheduler" style="rounded=1;whiteSpace=wrap;html=1;fontSize=13;" vertex="1" parent="84fUuEfoQeRxNVpQwfGD-26">
          <mxGeometry x="20" y="97" width="180" height="23" as="geometry" />
        </mxCell>
        <mxCell id="84fUuEfoQeRxNVpQwfGD-17" value="etcd" style="rounded=1;whiteSpace=wrap;html=1;fontSize=13;" vertex="1" parent="84fUuEfoQeRxNVpQwfGD-26">
          <mxGeometry x="20" y="127" width="180" height="23" as="geometry" />
        </mxCell>
        <mxCell id="84fUuEfoQeRxNVpQwfGD-15" value="&lt;div&gt;K8s master,&lt;br&gt;&lt;/div&gt;&lt;div&gt;Control plane&lt;/div&gt;" style="sketch=0;points=[[0,0,0],[0.25,0,0],[0.5,0,0],[0.75,0,0],[1,0,0],[0,1,0],[0.25,1,0],[0.5,1,0],[0.75,1,0],[1,1,0],[0,0.25,0],[0,0.5,0],[0,0.75,0],[1,0.25,0],[1,0.5,0],[1,0.75,0]];outlineConnect=0;fontColor=#232F3E;gradientColor=#F78E04;gradientDirection=north;fillColor=#D05C17;strokeColor=#ffffff;dashed=0;verticalLabelPosition=bottom;verticalAlign=top;align=center;html=1;fontSize=12;fontStyle=0;aspect=fixed;shape=mxgraph.aws4.resourceIcon;resIcon=mxgraph.aws4.eks;" vertex="1" parent="84fUuEfoQeRxNVpQwfGD-26">
          <mxGeometry x="234" width="78" height="78" as="geometry" />
        </mxCell>
        <mxCell id="84fUuEfoQeRxNVpQwfGD-104" value="&lt;div&gt;K8s master,&lt;br&gt;&lt;/div&gt;&lt;div&gt;Control plane&lt;/div&gt;" style="sketch=0;points=[[0,0,0],[0.25,0,0],[0.5,0,0],[0.75,0,0],[1,0,0],[0,1,0],[0.25,1,0],[0.5,1,0],[0.75,1,0],[1,1,0],[0,0.25,0],[0,0.5,0],[0,0.75,0],[1,0.25,0],[1,0.5,0],[1,0.75,0]];outlineConnect=0;fontColor=#232F3E;gradientColor=#F78E04;gradientDirection=north;fillColor=#D05C17;strokeColor=#ffffff;dashed=0;verticalLabelPosition=bottom;verticalAlign=top;align=center;html=1;fontSize=12;fontStyle=0;aspect=fixed;shape=mxgraph.aws4.resourceIcon;resIcon=mxgraph.aws4.eks;" vertex="1" parent="84fUuEfoQeRxNVpQwfGD-35">
          <mxGeometry x="1431" y="518" width="78" height="78" as="geometry" />
        </mxCell>
        <mxCell id="84fUuEfoQeRxNVpQwfGD-105" style="edgeStyle=orthogonalEdgeStyle;rounded=0;orthogonalLoop=1;jettySize=auto;html=1;entryX=0.5;entryY=0;entryDx=0;entryDy=0;entryPerimeter=0;fillColor=#0050ef;strokeColor=#001DBC;" edge="1" parent="84fUuEfoQeRxNVpQwfGD-35" source="84fUuEfoQeRxNVpQwfGD-10" target="84fUuEfoQeRxNVpQwfGD-104">
          <mxGeometry relative="1" as="geometry">
            <Array as="points">
              <mxPoint x="1385" y="435" />
              <mxPoint x="1470" y="435" />
            </Array>
          </mxGeometry>
        </mxCell>
        <mxCell id="84fUuEfoQeRxNVpQwfGD-107" style="edgeStyle=orthogonalEdgeStyle;rounded=0;orthogonalLoop=1;jettySize=auto;html=1;fillColor=#f8cecc;strokeColor=#b85450;" edge="1" parent="84fUuEfoQeRxNVpQwfGD-35" source="84fUuEfoQeRxNVpQwfGD-106" target="84fUuEfoQeRxNVpQwfGD-14">
          <mxGeometry relative="1" as="geometry">
            <mxPoint x="553.1428571428573" y="475.14285714285734" as="targetPoint" />
            <Array as="points">
              <mxPoint x="659" y="81" />
              <mxPoint x="659" y="496" />
            </Array>
          </mxGeometry>
        </mxCell>
        <mxCell id="84fUuEfoQeRxNVpQwfGD-106" value="EKS Master role" style="sketch=0;outlineConnect=0;fontColor=#232F3E;gradientColor=none;fillColor=#BF0816;strokeColor=none;dashed=0;verticalLabelPosition=bottom;verticalAlign=top;align=center;html=1;fontSize=12;fontStyle=0;aspect=fixed;pointerEvents=1;shape=mxgraph.aws4.role;" vertex="1" parent="84fUuEfoQeRxNVpQwfGD-35">
          <mxGeometry x="548" y="47" width="78" height="44" as="geometry" />
        </mxCell>
        <mxCell id="84fUuEfoQeRxNVpQwfGD-126" value="Private subnet" style="points=[[0,0],[0.25,0],[0.5,0],[0.75,0],[1,0],[1,0.25],[1,0.5],[1,0.75],[1,1],[0.75,1],[0.5,1],[0.25,1],[0,1],[0,0.75],[0,0.5],[0,0.25]];outlineConnect=0;gradientColor=none;html=1;whiteSpace=wrap;fontSize=12;fontStyle=0;container=1;pointerEvents=0;collapsible=0;recursiveResize=0;shape=mxgraph.aws4.group;grIcon=mxgraph.aws4.group_security_group;grStroke=0;strokeColor=#147EBA;fillColor=#E6F2F8;verticalAlign=top;align=left;spacingLeft=30;fontColor=#147EBA;dashed=0;" vertex="1" parent="84fUuEfoQeRxNVpQwfGD-35">
          <mxGeometry x="703.75" y="1165" width="375" height="384" as="geometry" />
        </mxCell>
        <mxCell id="84fUuEfoQeRxNVpQwfGD-127" value="" style="group" vertex="1" connectable="0" parent="84fUuEfoQeRxNVpQwfGD-126">
          <mxGeometry x="12" y="50.5" width="351" height="320" as="geometry" />
        </mxCell>
        <mxCell id="1qa2345JDhDKehQNPxXo-31" value="Security group" style="fillColor=none;strokeColor=#DD3522;verticalAlign=top;fontStyle=0;fontColor=#DD3522;whiteSpace=wrap;html=1;" parent="84fUuEfoQeRxNVpQwfGD-127" vertex="1">
          <mxGeometry width="351" height="320" as="geometry" />
        </mxCell>
        <mxCell id="1qa2345JDhDKehQNPxXo-71" value="EC2 instance contents" style="points=[[0,0],[0.25,0],[0.5,0],[0.75,0],[1,0],[1,0.25],[1,0.5],[1,0.75],[1,1],[0.75,1],[0.5,1],[0.25,1],[0,1],[0,0.75],[0,0.5],[0,0.25]];outlineConnect=0;html=1;whiteSpace=wrap;fontSize=12;fontStyle=0;container=0;pointerEvents=0;collapsible=0;recursiveResize=0;shape=mxgraph.aws4.group;grIcon=mxgraph.aws4.group_ec2_instance_contents;strokeColor=#d6b656;fillColor=#fff2cc;verticalAlign=top;align=left;spacingLeft=30;dashed=0;" parent="84fUuEfoQeRxNVpQwfGD-127" vertex="1">
          <mxGeometry x="10.273170731707317" y="25.5" width="179.78048780487805" height="280" as="geometry" />
        </mxCell>
        <mxCell id="1qa2345JDhDKehQNPxXo-76" value="" style="sketch=0;points=[[0,0,0],[0.25,0,0],[0.5,0,0],[0.75,0,0],[1,0,0],[0,1,0],[0.25,1,0],[0.5,1,0],[0.75,1,0],[1,1,0],[0,0.25,0],[0,0.5,0],[0,0.75,0],[1,0.25,0],[1,0.5,0],[1,0.75,0]];outlineConnect=0;gradientDirection=north;fillColor=#fff2cc;strokeColor=#D05C17;dashed=0;verticalLabelPosition=bottom;verticalAlign=top;align=center;html=1;fontSize=12;fontStyle=0;aspect=fixed;shape=mxgraph.aws4.resourceIcon;resIcon=mxgraph.aws4.containers;container=0;" parent="84fUuEfoQeRxNVpQwfGD-127" vertex="1">
          <mxGeometry x="116.34609756097561" y="46.5" width="66.77560975609757" height="66.77560975609757" as="geometry" />
        </mxCell>
        <mxCell id="84fUuEfoQeRxNVpQwfGD-174" style="edgeStyle=orthogonalEdgeStyle;rounded=0;orthogonalLoop=1;jettySize=auto;html=1;fillColor=#0050ef;strokeColor=#001DBC;entryX=0.005;entryY=0.63;entryDx=0;entryDy=0;entryPerimeter=0;" edge="1" parent="84fUuEfoQeRxNVpQwfGD-127" source="84fUuEfoQeRxNVpQwfGD-22" target="84fUuEfoQeRxNVpQwfGD-265">
          <mxGeometry relative="1" as="geometry">
            <mxPoint x="126.53365853658534" y="143.01851851851825" as="targetPoint" />
            <Array as="points">
              <mxPoint x="98" y="145" />
              <mxPoint x="125" y="145" />
            </Array>
          </mxGeometry>
        </mxCell>
        <mxCell id="84fUuEfoQeRxNVpQwfGD-22" value="kubelet" style="rounded=1;whiteSpace=wrap;html=1;fontSize=13;fillColor=#dae8fc;strokeColor=#6c8ebf;container=0;" vertex="1" parent="84fUuEfoQeRxNVpQwfGD-127">
          <mxGeometry x="18.834146341463413" y="184" width="154.09756097560975" height="23" as="geometry" />
        </mxCell>
        <mxCell id="84fUuEfoQeRxNVpQwfGD-21" value="kube-proxy" style="rounded=1;whiteSpace=wrap;html=1;fontSize=13;fillColor=#dae8fc;strokeColor=#6c8ebf;container=0;" vertex="1" parent="84fUuEfoQeRxNVpQwfGD-127">
          <mxGeometry x="18.834146341463413" y="216" width="154.09756097560975" height="23" as="geometry" />
        </mxCell>
        <mxCell id="1qa2345JDhDKehQNPxXo-79" value="Container runtime" style="rounded=0;whiteSpace=wrap;html=1;container=0;" parent="84fUuEfoQeRxNVpQwfGD-127" vertex="1">
          <mxGeometry x="17.978048780487804" y="248.5" width="154.95365853658535" height="20" as="geometry" />
        </mxCell>
        <mxCell id="1qa2345JDhDKehQNPxXo-80" value="OS" style="rounded=0;whiteSpace=wrap;html=1;container=0;" parent="84fUuEfoQeRxNVpQwfGD-127" vertex="1">
          <mxGeometry x="18.346170731707275" y="278.5" width="154.58553658536584" height="20" as="geometry" />
        </mxCell>
        <mxCell id="84fUuEfoQeRxNVpQwfGD-71" value="&lt;div&gt;Amazon EC2&lt;/div&gt;&lt;div&gt;(same type)&lt;br&gt;&lt;/div&gt;" style="sketch=0;outlineConnect=0;fontColor=#232F3E;gradientColor=none;strokeColor=#ffffff;fillColor=#232F3E;dashed=0;verticalLabelPosition=middle;verticalAlign=bottom;align=center;html=1;whiteSpace=wrap;fontSize=10;fontStyle=1;spacing=3;shape=mxgraph.aws4.productIcon;prIcon=mxgraph.aws4.ec2;" vertex="1" parent="84fUuEfoQeRxNVpQwfGD-127">
          <mxGeometry x="239.25" y="39.5" width="80" height="112.5" as="geometry" />
        </mxCell>
        <mxCell id="84fUuEfoQeRxNVpQwfGD-72" value="&lt;div&gt;Amazon EC2&lt;/div&gt;&lt;div&gt;(same type)&lt;br&gt;&lt;/div&gt;" style="sketch=0;outlineConnect=0;fontColor=#232F3E;gradientColor=none;strokeColor=#ffffff;fillColor=#232F3E;dashed=0;verticalLabelPosition=middle;verticalAlign=bottom;align=center;html=1;whiteSpace=wrap;fontSize=10;fontStyle=1;spacing=3;shape=mxgraph.aws4.productIcon;prIcon=mxgraph.aws4.ec2;" vertex="1" parent="84fUuEfoQeRxNVpQwfGD-127">
          <mxGeometry x="239.25" y="166" width="80" height="112.5" as="geometry" />
        </mxCell>
        <mxCell id="84fUuEfoQeRxNVpQwfGD-139" style="edgeStyle=orthogonalEdgeStyle;rounded=0;orthogonalLoop=1;jettySize=auto;html=1;entryX=0.109;entryY=0.07;entryDx=0;entryDy=0;entryPerimeter=0;fillColor=#0050ef;strokeColor=#001DBC;" edge="1" parent="84fUuEfoQeRxNVpQwfGD-127" source="84fUuEfoQeRxNVpQwfGD-136" target="84fUuEfoQeRxNVpQwfGD-22">
          <mxGeometry relative="1" as="geometry" />
        </mxCell>
        <mxCell id="84fUuEfoQeRxNVpQwfGD-136" value="&lt;font color=&quot;#4c0099&quot;&gt;ENI&lt;/font&gt;" style="sketch=0;outlineConnect=0;fontColor=#232F3E;gradientColor=none;fillColor=#4D27AA;strokeColor=none;dashed=0;verticalLabelPosition=middle;verticalAlign=middle;align=left;html=1;fontSize=12;fontStyle=0;aspect=fixed;pointerEvents=1;shape=mxgraph.aws4.elastic_network_interface;labelPosition=right;" vertex="1" parent="84fUuEfoQeRxNVpQwfGD-127">
          <mxGeometry x="12.25000000000001" y="68.5" width="47.25" height="47.25" as="geometry" />
        </mxCell>
        <mxCell id="84fUuEfoQeRxNVpQwfGD-265" value="Pod" style="sketch=0;html=1;dashed=0;whitespace=wrap;fillColor=#2875E2;strokeColor=#ffffff;points=[[0.005,0.63,0],[0.1,0.2,0],[0.9,0.2,0],[0.5,0,0],[0.995,0.63,0],[0.72,0.99,0],[0.5,1,0],[0.28,0.99,0]];verticalLabelPosition=bottom;align=center;verticalAlign=top;shape=mxgraph.kubernetes.icon;prIcon=pod" vertex="1" parent="84fUuEfoQeRxNVpQwfGD-127">
          <mxGeometry x="124.73000000000002" y="115.75" width="50" height="48" as="geometry" />
        </mxCell>
        <mxCell id="84fUuEfoQeRxNVpQwfGD-29" value="&lt;b&gt;&lt;font style=&quot;font-size: 13px;&quot;&gt;Node Group&lt;/font&gt;&lt;/b&gt;. Auto Scaling group" style="points=[[0,0],[0.25,0],[0.5,0],[0.75,0],[1,0],[1,0.25],[1,0.5],[1,0.75],[1,1],[0.75,1],[0.5,1],[0.25,1],[0,1],[0,0.75],[0,0.5],[0,0.25]];outlineConnect=0;gradientColor=none;html=1;whiteSpace=wrap;fontSize=12;fontStyle=0;container=1;pointerEvents=0;collapsible=0;recursiveResize=0;shape=mxgraph.aws4.groupCenter;grIcon=mxgraph.aws4.group_auto_scaling_group;grStroke=1;strokeColor=#D86613;fillColor=none;verticalAlign=top;align=center;fontColor=#D86613;dashed=1;spacingTop=25;strokeWidth=2;" vertex="1" parent="84fUuEfoQeRxNVpQwfGD-35">
          <mxGeometry x="682" y="1116" width="703" height="458" as="geometry" />
        </mxCell>
        <mxCell id="84fUuEfoQeRxNVpQwfGD-108" value="" style="group" vertex="1" connectable="0" parent="84fUuEfoQeRxNVpQwfGD-35">
          <mxGeometry x="708.5" y="872" width="367" height="172" as="geometry" />
        </mxCell>
        <mxCell id="84fUuEfoQeRxNVpQwfGD-109" value="Public subnet" style="points=[[0,0],[0.25,0],[0.5,0],[0.75,0],[1,0],[1,0.25],[1,0.5],[1,0.75],[1,1],[0.75,1],[0.5,1],[0.25,1],[0,1],[0,0.75],[0,0.5],[0,0.25]];outlineConnect=0;gradientColor=none;html=1;whiteSpace=wrap;fontSize=12;fontStyle=0;container=1;pointerEvents=0;collapsible=0;recursiveResize=0;shape=mxgraph.aws4.group;grIcon=mxgraph.aws4.group_security_group;grStroke=0;strokeColor=#248814;fillColor=#E9F3E6;verticalAlign=top;align=left;spacingLeft=30;fontColor=#248814;dashed=0;" vertex="1" parent="84fUuEfoQeRxNVpQwfGD-108">
          <mxGeometry width="367" height="172" as="geometry" />
        </mxCell>
        <mxCell id="84fUuEfoQeRxNVpQwfGD-122" value="Security group" style="fillColor=none;strokeColor=#DD3522;verticalAlign=top;fontStyle=0;fontColor=#DD3522;whiteSpace=wrap;html=1;" vertex="1" parent="84fUuEfoQeRxNVpQwfGD-108">
          <mxGeometry x="118.23" y="28" width="115.77" height="119" as="geometry" />
        </mxCell>
        <mxCell id="84fUuEfoQeRxNVpQwfGD-123" value="" style="sketch=0;outlineConnect=0;fontColor=#232F3E;gradientColor=none;fillColor=#4D27AA;strokeColor=none;dashed=0;verticalLabelPosition=bottom;verticalAlign=top;align=center;html=1;fontSize=12;fontStyle=0;aspect=fixed;pointerEvents=1;shape=mxgraph.aws4.application_load_balancer;" vertex="1" parent="84fUuEfoQeRxNVpQwfGD-108">
          <mxGeometry x="142.2545871559633" y="61" width="65.6559633027523" height="65.6559633027523" as="geometry" />
        </mxCell>
        <mxCell id="84fUuEfoQeRxNVpQwfGD-129" style="edgeStyle=orthogonalEdgeStyle;rounded=0;orthogonalLoop=1;jettySize=auto;html=1;fillColor=#fff2cc;strokeColor=#d6b656;" edge="1" parent="84fUuEfoQeRxNVpQwfGD-35" source="84fUuEfoQeRxNVpQwfGD-123" target="84fUuEfoQeRxNVpQwfGD-71">
          <mxGeometry relative="1" as="geometry">
            <Array as="points">
              <mxPoint x="937" y="966" />
              <mxPoint x="937" y="1311" />
            </Array>
          </mxGeometry>
        </mxCell>
        <mxCell id="84fUuEfoQeRxNVpQwfGD-128" style="edgeStyle=orthogonalEdgeStyle;rounded=0;orthogonalLoop=1;jettySize=auto;html=1;entryX=0.5;entryY=0;entryDx=0;entryDy=0;fillColor=#fff2cc;strokeColor=#d6b656;" edge="1" parent="84fUuEfoQeRxNVpQwfGD-35" source="84fUuEfoQeRxNVpQwfGD-123" target="1qa2345JDhDKehQNPxXo-71">
          <mxGeometry relative="1" as="geometry">
            <Array as="points">
              <mxPoint x="886" y="1061" />
              <mxPoint x="816" y="1061" />
            </Array>
          </mxGeometry>
        </mxCell>
        <mxCell id="84fUuEfoQeRxNVpQwfGD-130" style="edgeStyle=orthogonalEdgeStyle;rounded=0;orthogonalLoop=1;jettySize=auto;html=1;fillColor=#fff2cc;strokeColor=#d6b656;" edge="1" parent="84fUuEfoQeRxNVpQwfGD-35" source="84fUuEfoQeRxNVpQwfGD-123" target="84fUuEfoQeRxNVpQwfGD-72">
          <mxGeometry relative="1" as="geometry">
            <Array as="points">
              <mxPoint x="937" y="966" />
              <mxPoint x="937" y="1438" />
            </Array>
          </mxGeometry>
        </mxCell>
        <mxCell id="84fUuEfoQeRxNVpQwfGD-138" style="edgeStyle=orthogonalEdgeStyle;rounded=0;orthogonalLoop=1;jettySize=auto;html=1;fillColor=#0050ef;strokeColor=#001DBC;" edge="1" parent="84fUuEfoQeRxNVpQwfGD-35" source="84fUuEfoQeRxNVpQwfGD-16" target="84fUuEfoQeRxNVpQwfGD-136">
          <mxGeometry relative="1" as="geometry">
            <Array as="points">
              <mxPoint x="665" y="531" />
              <mxPoint x="665" y="1178" />
            </Array>
          </mxGeometry>
        </mxCell>
        <mxCell id="84fUuEfoQeRxNVpQwfGD-152" style="edgeStyle=orthogonalEdgeStyle;rounded=0;orthogonalLoop=1;jettySize=auto;html=1;fillColor=#fff2cc;strokeColor=#d6b656;strokeWidth=2;" edge="1" parent="84fUuEfoQeRxNVpQwfGD-35" source="84fUuEfoQeRxNVpQwfGD-78" target="84fUuEfoQeRxNVpQwfGD-154">
          <mxGeometry relative="1" as="geometry">
            <mxPoint x="1074" y="767" as="targetPoint" />
            <Array as="points">
              <mxPoint x="1209" y="257" />
              <mxPoint x="626" y="257" />
              <mxPoint x="626" y="758" />
              <mxPoint x="610" y="758" />
            </Array>
          </mxGeometry>
        </mxCell>
        <mxCell id="84fUuEfoQeRxNVpQwfGD-10" value="Network Load Balancer" style="sketch=0;outlineConnect=0;fontColor=#232F3E;gradientColor=none;strokeColor=#ffffff;fillColor=#232F3E;dashed=0;verticalLabelPosition=middle;verticalAlign=bottom;align=center;html=1;whiteSpace=wrap;fontSize=10;fontStyle=1;spacing=3;shape=mxgraph.aws4.productIcon;prIcon=mxgraph.aws4.network_load_balancer;" vertex="1" parent="84fUuEfoQeRxNVpQwfGD-35">
          <mxGeometry x="1343" y="311" width="80" height="110" as="geometry" />
        </mxCell>
        <mxCell id="84fUuEfoQeRxNVpQwfGD-13" style="edgeStyle=orthogonalEdgeStyle;rounded=0;orthogonalLoop=1;jettySize=auto;html=1;entryX=0.5;entryY=0;entryDx=0;entryDy=0;entryPerimeter=0;fillColor=#0050ef;strokeColor=#001DBC;" edge="1" parent="84fUuEfoQeRxNVpQwfGD-35" source="84fUuEfoQeRxNVpQwfGD-10" target="84fUuEfoQeRxNVpQwfGD-7">
          <mxGeometry relative="1" as="geometry" />
        </mxCell>
        <mxCell id="84fUuEfoQeRxNVpQwfGD-158" style="edgeStyle=orthogonalEdgeStyle;rounded=0;orthogonalLoop=1;jettySize=auto;html=1;fillColor=#fff2cc;strokeColor=#d6b656;strokeWidth=2;" edge="1" parent="84fUuEfoQeRxNVpQwfGD-35" source="84fUuEfoQeRxNVpQwfGD-154" target="84fUuEfoQeRxNVpQwfGD-123">
          <mxGeometry relative="1" as="geometry">
            <Array as="points">
              <mxPoint x="818" y="811" />
              <mxPoint x="818" y="966" />
            </Array>
          </mxGeometry>
        </mxCell>
        <mxCell id="84fUuEfoQeRxNVpQwfGD-160" style="edgeStyle=orthogonalEdgeStyle;rounded=0;orthogonalLoop=1;jettySize=auto;html=1;fillColor=#fff2cc;strokeColor=#d6b656;strokeWidth=2;" edge="1" parent="84fUuEfoQeRxNVpQwfGD-35" source="84fUuEfoQeRxNVpQwfGD-154" target="84fUuEfoQeRxNVpQwfGD-133">
          <mxGeometry relative="1" as="geometry">
            <Array as="points">
              <mxPoint x="1322" y="811" />
              <mxPoint x="1322" y="967" />
            </Array>
          </mxGeometry>
        </mxCell>
        <mxCell id="84fUuEfoQeRxNVpQwfGD-187" style="edgeStyle=orthogonalEdgeStyle;rounded=0;orthogonalLoop=1;jettySize=auto;html=1;fillColor=#fff2cc;strokeColor=#d6b656;strokeWidth=2;" edge="1" parent="84fUuEfoQeRxNVpQwfGD-35" source="84fUuEfoQeRxNVpQwfGD-154" target="84fUuEfoQeRxNVpQwfGD-173">
          <mxGeometry relative="1" as="geometry">
            <Array as="points">
              <mxPoint x="1793" y="782" />
              <mxPoint x="1793" y="812" />
            </Array>
          </mxGeometry>
        </mxCell>
        <mxCell id="84fUuEfoQeRxNVpQwfGD-154" value="Network Load Balancer" style="sketch=0;outlineConnect=0;fontColor=#232F3E;gradientColor=none;strokeColor=#ffffff;fillColor=#232F3E;dashed=0;verticalLabelPosition=middle;verticalAlign=bottom;align=center;html=1;whiteSpace=wrap;fontSize=10;fontStyle=1;spacing=3;shape=mxgraph.aws4.productIcon;prIcon=mxgraph.aws4.network_load_balancer;" vertex="1" parent="84fUuEfoQeRxNVpQwfGD-35">
          <mxGeometry x="572" y="756" width="80" height="110" as="geometry" />
        </mxCell>
        <mxCell id="84fUuEfoQeRxNVpQwfGD-162" value="Private subnet" style="points=[[0,0],[0.25,0],[0.5,0],[0.75,0],[1,0],[1,0.25],[1,0.5],[1,0.75],[1,1],[0.75,1],[0.5,1],[0.25,1],[0,1],[0,0.75],[0,0.5],[0,0.25]];outlineConnect=0;gradientColor=none;html=1;whiteSpace=wrap;fontSize=12;fontStyle=0;container=1;pointerEvents=0;collapsible=0;recursiveResize=0;shape=mxgraph.aws4.group;grIcon=mxgraph.aws4.group_security_group;grStroke=0;strokeColor=#147EBA;fillColor=#E6F2F8;verticalAlign=top;align=left;spacingLeft=30;fontColor=#147EBA;dashed=0;" vertex="1" parent="84fUuEfoQeRxNVpQwfGD-35">
          <mxGeometry x="1207" y="1165" width="166" height="383" as="geometry" />
        </mxCell>
        <mxCell id="84fUuEfoQeRxNVpQwfGD-101" value="&lt;div&gt;Amazon EC2&lt;/div&gt;&lt;div&gt;(same type)&lt;br&gt;&lt;/div&gt;" style="sketch=0;outlineConnect=0;fontColor=#232F3E;gradientColor=none;strokeColor=#ffffff;fillColor=#232F3E;dashed=0;verticalLabelPosition=middle;verticalAlign=bottom;align=center;html=1;whiteSpace=wrap;fontSize=10;fontStyle=1;spacing=3;shape=mxgraph.aws4.productIcon;prIcon=mxgraph.aws4.ec2;" vertex="1" parent="84fUuEfoQeRxNVpQwfGD-35">
          <mxGeometry x="1244" y="1353" width="80" height="112.5" as="geometry" />
        </mxCell>
        <mxCell id="84fUuEfoQeRxNVpQwfGD-102" value="&lt;div&gt;Amazon EC2&lt;/div&gt;&lt;div&gt;(same type)&lt;br&gt;&lt;/div&gt;" style="sketch=0;outlineConnect=0;fontColor=#232F3E;gradientColor=none;strokeColor=#ffffff;fillColor=#232F3E;dashed=0;verticalLabelPosition=middle;verticalAlign=bottom;align=center;html=1;whiteSpace=wrap;fontSize=10;fontStyle=1;spacing=3;shape=mxgraph.aws4.productIcon;prIcon=mxgraph.aws4.ec2;" vertex="1" parent="84fUuEfoQeRxNVpQwfGD-35">
          <mxGeometry x="1244" y="1216" width="80" height="112.5" as="geometry" />
        </mxCell>
        <mxCell id="84fUuEfoQeRxNVpQwfGD-134" style="edgeStyle=orthogonalEdgeStyle;rounded=0;orthogonalLoop=1;jettySize=auto;html=1;fillColor=#fff2cc;strokeColor=#d6b656;" edge="1" parent="84fUuEfoQeRxNVpQwfGD-35" source="84fUuEfoQeRxNVpQwfGD-133" target="84fUuEfoQeRxNVpQwfGD-102">
          <mxGeometry relative="1" as="geometry">
            <Array as="points">
              <mxPoint x="1385" y="1052" />
              <mxPoint x="1345" y="1052" />
              <mxPoint x="1345" y="1272" />
            </Array>
          </mxGeometry>
        </mxCell>
        <mxCell id="84fUuEfoQeRxNVpQwfGD-135" style="edgeStyle=orthogonalEdgeStyle;rounded=0;orthogonalLoop=1;jettySize=auto;html=1;fillColor=#fff2cc;strokeColor=#d6b656;" edge="1" parent="84fUuEfoQeRxNVpQwfGD-35" source="84fUuEfoQeRxNVpQwfGD-133" target="84fUuEfoQeRxNVpQwfGD-101">
          <mxGeometry relative="1" as="geometry">
            <Array as="points">
              <mxPoint x="1385" y="1052" />
              <mxPoint x="1346" y="1052" />
              <mxPoint x="1346" y="1409" />
            </Array>
          </mxGeometry>
        </mxCell>
        <mxCell id="84fUuEfoQeRxNVpQwfGD-166" style="edgeStyle=orthogonalEdgeStyle;rounded=0;orthogonalLoop=1;jettySize=auto;html=1;" edge="1" parent="84fUuEfoQeRxNVpQwfGD-35" source="1qa2345JDhDKehQNPxXo-70" target="1qa2345JDhDKehQNPxXo-76">
          <mxGeometry relative="1" as="geometry">
            <Array as="points">
              <mxPoint x="914" y="1295" />
            </Array>
          </mxGeometry>
        </mxCell>
        <mxCell id="84fUuEfoQeRxNVpQwfGD-172" style="edgeStyle=orthogonalEdgeStyle;rounded=0;orthogonalLoop=1;jettySize=auto;html=1;entryX=0.25;entryY=1;entryDx=0;entryDy=0;" edge="1" parent="84fUuEfoQeRxNVpQwfGD-35" source="1qa2345JDhDKehQNPxXo-81" target="1qa2345JDhDKehQNPxXo-80">
          <mxGeometry relative="1" as="geometry">
            <Array as="points">
              <mxPoint x="601" y="1712" />
              <mxPoint x="773" y="1712" />
            </Array>
          </mxGeometry>
        </mxCell>
        <mxCell id="84fUuEfoQeRxNVpQwfGD-223" value="" style="edgeStyle=orthogonalEdgeStyle;rounded=0;orthogonalLoop=1;jettySize=auto;html=1;" edge="1" parent="84fUuEfoQeRxNVpQwfGD-35" source="84fUuEfoQeRxNVpQwfGD-222" target="84fUuEfoQeRxNVpQwfGD-193">
          <mxGeometry relative="1" as="geometry">
            <Array as="points">
              <mxPoint x="2492" y="1955" />
              <mxPoint x="2492" y="1955" />
            </Array>
          </mxGeometry>
        </mxCell>
        <mxCell id="84fUuEfoQeRxNVpQwfGD-222" value="ServiceRole" style="sketch=0;outlineConnect=0;fontColor=#232F3E;gradientColor=none;fillColor=#BF0816;strokeColor=none;dashed=0;verticalLabelPosition=bottom;verticalAlign=top;align=center;html=1;fontSize=12;fontStyle=0;aspect=fixed;pointerEvents=1;shape=mxgraph.aws4.role;" vertex="1" parent="84fUuEfoQeRxNVpQwfGD-35">
          <mxGeometry x="2453" y="2097" width="78" height="44" as="geometry" />
        </mxCell>
        <mxCell id="84fUuEfoQeRxNVpQwfGD-253" style="edgeStyle=orthogonalEdgeStyle;rounded=0;orthogonalLoop=1;jettySize=auto;html=1;exitX=0.005;exitY=0.63;exitDx=0;exitDy=0;exitPerimeter=0;entryX=0;entryY=0.5;entryDx=0;entryDy=0;entryPerimeter=0;fillColor=#fff2cc;strokeColor=#d6b656;" edge="1" parent="84fUuEfoQeRxNVpQwfGD-35" source="84fUuEfoQeRxNVpQwfGD-229" target="84fUuEfoQeRxNVpQwfGD-249">
          <mxGeometry relative="1" as="geometry" />
        </mxCell>
        <mxCell id="84fUuEfoQeRxNVpQwfGD-229" value="ClusterIP" style="sketch=0;html=1;dashed=0;whitespace=wrap;fillColor=#2875E2;strokeColor=#ffffff;points=[[0.005,0.63,0],[0.1,0.2,0],[0.9,0.2,0],[0.5,0,0],[0.995,0.63,0],[0.72,0.99,0],[0.5,1,0],[0.28,0.99,0]];verticalLabelPosition=bottom;align=center;verticalAlign=top;shape=mxgraph.kubernetes.icon;prIcon=svc" vertex="1" parent="84fUuEfoQeRxNVpQwfGD-35">
          <mxGeometry x="1801" y="1230" width="50" height="48" as="geometry" />
        </mxCell>
        <mxCell id="84fUuEfoQeRxNVpQwfGD-240" style="edgeStyle=orthogonalEdgeStyle;rounded=0;orthogonalLoop=1;jettySize=auto;html=1;exitX=0.005;exitY=0.63;exitDx=0;exitDy=0;exitPerimeter=0;entryX=0.9;entryY=0.2;entryDx=0;entryDy=0;entryPerimeter=0;fillColor=#fff2cc;strokeColor=#d6b656;" edge="1" parent="84fUuEfoQeRxNVpQwfGD-35" source="84fUuEfoQeRxNVpQwfGD-218" target="84fUuEfoQeRxNVpQwfGD-229">
          <mxGeometry relative="1" as="geometry" />
        </mxCell>
        <mxCell id="84fUuEfoQeRxNVpQwfGD-254" style="edgeStyle=orthogonalEdgeStyle;rounded=0;orthogonalLoop=1;jettySize=auto;html=1;exitX=1;exitY=0.5;exitDx=0;exitDy=0;exitPerimeter=0;entryX=0.005;entryY=0.63;entryDx=0;entryDy=0;entryPerimeter=0;fillColor=#fff2cc;strokeColor=#d6b656;" edge="1" parent="84fUuEfoQeRxNVpQwfGD-35" source="84fUuEfoQeRxNVpQwfGD-249" target="84fUuEfoQeRxNVpQwfGD-251">
          <mxGeometry relative="1" as="geometry">
            <Array as="points">
              <mxPoint x="1867" y="1340" />
              <mxPoint x="1867" y="1356" />
            </Array>
          </mxGeometry>
        </mxCell>
        <mxCell id="84fUuEfoQeRxNVpQwfGD-249" value="&lt;div&gt;Port to&lt;/div&gt;&lt;div&gt;TargetPort&lt;br&gt;&lt;/div&gt;" style="fillColor=#999999;verticalLabelPosition=bottom;sketch=0;html=1;strokeColor=#ffffff;verticalAlign=top;align=center;points=[[0.145,0.145,0],[0.5,0,0],[0.855,0.145,0],[1,0.5,0],[0.855,0.855,0],[0.5,1,0],[0.145,0.855,0],[0,0.5,0]];pointerEvents=1;shape=mxgraph.cisco_safe.compositeIcon;bgIcon=ellipse;resIcon=mxgraph.cisco_safe.capability.routing;" vertex="1" parent="84fUuEfoQeRxNVpQwfGD-35">
          <mxGeometry x="1804.5" y="1318" width="43" height="43" as="geometry" />
        </mxCell>
        <mxCell id="84fUuEfoQeRxNVpQwfGD-168" value="" style="image;sketch=0;aspect=fixed;html=1;points=[];align=center;fontSize=12;image=img/lib/mscae/Kubernetes.svg;" vertex="1" parent="84fUuEfoQeRxNVpQwfGD-35">
          <mxGeometry x="2411" y="929" width="50" height="48" as="geometry" />
        </mxCell>
        <mxCell id="84fUuEfoQeRxNVpQwfGD-184" value="svc" style="sketch=0;html=1;dashed=0;whitespace=wrap;fillColor=#2875E2;strokeColor=#ffffff;points=[[0.005,0.63,0],[0.1,0.2,0],[0.9,0.2,0],[0.5,0,0],[0.995,0.63,0],[0.72,0.99,0],[0.5,1,0],[0.28,0.99,0]];verticalLabelPosition=middle;align=left;verticalAlign=middle;shape=mxgraph.kubernetes.icon;prIcon=svc;labelPosition=right;" vertex="1" parent="84fUuEfoQeRxNVpQwfGD-35">
          <mxGeometry x="2295" y="1119" width="50" height="48" as="geometry" />
        </mxCell>
        <mxCell id="84fUuEfoQeRxNVpQwfGD-236" value="" style="edgeStyle=orthogonalEdgeStyle;rounded=0;orthogonalLoop=1;jettySize=auto;html=1;" edge="1" parent="84fUuEfoQeRxNVpQwfGD-35" source="84fUuEfoQeRxNVpQwfGD-184" target="84fUuEfoQeRxNVpQwfGD-191">
          <mxGeometry relative="1" as="geometry" />
        </mxCell>
        <mxCell id="84fUuEfoQeRxNVpQwfGD-191" value="Deployment" style="sketch=0;html=1;dashed=0;whitespace=wrap;fillColor=#2875E2;strokeColor=#ffffff;points=[[0.005,0.63,0],[0.1,0.2,0],[0.9,0.2,0],[0.5,0,0],[0.995,0.63,0],[0.72,0.99,0],[0.5,1,0],[0.28,0.99,0]];verticalLabelPosition=bottom;align=center;verticalAlign=top;shape=mxgraph.kubernetes.icon;prIcon=deploy" vertex="1" parent="84fUuEfoQeRxNVpQwfGD-35">
          <mxGeometry x="2295" y="1193" width="50" height="48" as="geometry" />
        </mxCell>
        <mxCell id="84fUuEfoQeRxNVpQwfGD-232" value="" style="edgeStyle=orthogonalEdgeStyle;rounded=0;orthogonalLoop=1;jettySize=auto;html=1;" edge="1" parent="84fUuEfoQeRxNVpQwfGD-35" source="84fUuEfoQeRxNVpQwfGD-191" target="84fUuEfoQeRxNVpQwfGD-231">
          <mxGeometry relative="1" as="geometry" />
        </mxCell>
        <mxCell id="84fUuEfoQeRxNVpQwfGD-231" value="ReplicaSet" style="sketch=0;html=1;dashed=0;whitespace=wrap;fillColor=#2875E2;strokeColor=#ffffff;points=[[0.005,0.63,0],[0.1,0.2,0],[0.9,0.2,0],[0.5,0,0],[0.995,0.63,0],[0.72,0.99,0],[0.5,1,0],[0.28,0.99,0]];verticalLabelPosition=bottom;align=center;verticalAlign=top;shape=mxgraph.kubernetes.icon;prIcon=rs" vertex="1" parent="84fUuEfoQeRxNVpQwfGD-35">
          <mxGeometry x="2383" y="1194" width="50" height="48" as="geometry" />
        </mxCell>
        <mxCell id="84fUuEfoQeRxNVpQwfGD-264" style="edgeStyle=orthogonalEdgeStyle;rounded=0;orthogonalLoop=1;jettySize=auto;html=1;exitX=0.995;exitY=0.63;exitDx=0;exitDy=0;exitPerimeter=0;entryX=0.005;entryY=0.63;entryDx=0;entryDy=0;entryPerimeter=0;" edge="1" parent="84fUuEfoQeRxNVpQwfGD-35" source="84fUuEfoQeRxNVpQwfGD-231" target="84fUuEfoQeRxNVpQwfGD-233">
          <mxGeometry relative="1" as="geometry" />
        </mxCell>
        <mxCell id="84fUuEfoQeRxNVpQwfGD-262" style="edgeStyle=orthogonalEdgeStyle;rounded=0;orthogonalLoop=1;jettySize=auto;html=1;exitX=0.995;exitY=0.63;exitDx=0;exitDy=0;exitPerimeter=0;entryX=0.005;entryY=0.63;entryDx=0;entryDy=0;entryPerimeter=0;" edge="1" parent="84fUuEfoQeRxNVpQwfGD-35" source="84fUuEfoQeRxNVpQwfGD-231" target="84fUuEfoQeRxNVpQwfGD-194">
          <mxGeometry relative="1" as="geometry">
            <Array as="points">
              <mxPoint x="2436" y="1224.5" />
              <mxPoint x="2436" y="1191.5" />
            </Array>
          </mxGeometry>
        </mxCell>
        <mxCell id="84fUuEfoQeRxNVpQwfGD-194" value="" style="sketch=0;html=1;dashed=0;whitespace=wrap;fillColor=#2875E2;strokeColor=#ffffff;points=[[0.005,0.63,0],[0.1,0.2,0],[0.9,0.2,0],[0.5,0,0],[0.995,0.63,0],[0.72,0.99,0],[0.5,1,0],[0.28,0.99,0]];verticalLabelPosition=bottom;align=center;verticalAlign=top;shape=mxgraph.kubernetes.icon;prIcon=pod" vertex="1" parent="84fUuEfoQeRxNVpQwfGD-35">
          <mxGeometry x="2471" y="1161" width="50" height="48" as="geometry" />
        </mxCell>
        <mxCell id="84fUuEfoQeRxNVpQwfGD-233" value="" style="sketch=0;html=1;dashed=0;whitespace=wrap;fillColor=#2875E2;strokeColor=#ffffff;points=[[0.005,0.63,0],[0.1,0.2,0],[0.9,0.2,0],[0.5,0,0],[0.995,0.63,0],[0.72,0.99,0],[0.5,1,0],[0.28,0.99,0]];verticalLabelPosition=bottom;align=center;verticalAlign=top;shape=mxgraph.kubernetes.icon;prIcon=pod" vertex="1" parent="84fUuEfoQeRxNVpQwfGD-35">
          <mxGeometry x="2473" y="1212" width="50" height="48" as="geometry" />
        </mxCell>
        <mxCell id="84fUuEfoQeRxNVpQwfGD-216" value="Pod" style="sketch=0;html=1;dashed=0;whitespace=wrap;fillColor=#2875E2;strokeColor=#ffffff;points=[[0.005,0.63,0],[0.1,0.2,0],[0.9,0.2,0],[0.5,0,0],[0.995,0.63,0],[0.72,0.99,0],[0.5,1,0],[0.28,0.99,0]];verticalLabelPosition=bottom;align=center;verticalAlign=top;shape=mxgraph.kubernetes.icon;prIcon=pod" vertex="1" parent="84fUuEfoQeRxNVpQwfGD-35">
          <mxGeometry x="2272" y="1704" width="50" height="48" as="geometry" />
        </mxCell>
        <mxCell id="84fUuEfoQeRxNVpQwfGD-268" style="edgeStyle=orthogonalEdgeStyle;rounded=0;orthogonalLoop=1;jettySize=auto;html=1;exitX=0.5;exitY=0;exitDx=0;exitDy=0;exitPerimeter=0;entryX=0.995;entryY=0.63;entryDx=0;entryDy=0;entryPerimeter=0;" edge="1" parent="84fUuEfoQeRxNVpQwfGD-35" source="84fUuEfoQeRxNVpQwfGD-213" target="84fUuEfoQeRxNVpQwfGD-216">
          <mxGeometry relative="1" as="geometry" />
        </mxCell>
        <mxCell id="84fUuEfoQeRxNVpQwfGD-189" value="Nginx&lt;br&gt;&lt;div&gt;Ingress Controller&lt;br&gt;&lt;/div&gt;" style="sketch=0;html=1;dashed=0;whitespace=wrap;fillColor=#2875E2;strokeColor=#ffffff;points=[[0.005,0.63,0],[0.1,0.2,0],[0.9,0.2,0],[0.5,0,0],[0.995,0.63,0],[0.72,0.99,0],[0.5,1,0],[0.28,0.99,0]];verticalLabelPosition=bottom;align=center;verticalAlign=top;shape=mxgraph.kubernetes.icon;prIcon=ing" vertex="1" parent="84fUuEfoQeRxNVpQwfGD-35">
          <mxGeometry x="1865" y="1004.5" width="50" height="48" as="geometry" />
        </mxCell>
        <mxCell id="84fUuEfoQeRxNVpQwfGD-190" style="edgeStyle=orthogonalEdgeStyle;rounded=0;orthogonalLoop=1;jettySize=auto;html=1;entryX=0.005;entryY=0.63;entryDx=0;entryDy=0;entryPerimeter=0;" edge="1" parent="84fUuEfoQeRxNVpQwfGD-35" source="84fUuEfoQeRxNVpQwfGD-189" target="84fUuEfoQeRxNVpQwfGD-180">
          <mxGeometry relative="1" as="geometry">
            <Array as="points">
              <mxPoint x="1935" y="1032" />
              <mxPoint x="1935" y="1032" />
            </Array>
          </mxGeometry>
        </mxCell>
        <mxCell id="84fUuEfoQeRxNVpQwfGD-251" value="&lt;div&gt;Pod App:Web&lt;br&gt;&lt;/div&gt;&lt;div&gt;(ContainerPort)&lt;br&gt;&lt;/div&gt;" style="sketch=0;html=1;dashed=0;whitespace=wrap;fillColor=#2875E2;strokeColor=#ffffff;points=[[0.005,0.63,0],[0.1,0.2,0],[0.9,0.2,0],[0.5,0,0],[0.995,0.63,0],[0.72,0.99,0],[0.5,1,0],[0.28,0.99,0]];verticalLabelPosition=bottom;align=center;verticalAlign=top;shape=mxgraph.kubernetes.icon;prIcon=pod" vertex="1" parent="84fUuEfoQeRxNVpQwfGD-35">
          <mxGeometry x="1883" y="1326" width="50" height="48" as="geometry" />
        </mxCell>
        <mxCell id="84fUuEfoQeRxNVpQwfGD-272" value="Pod App:Web" style="sketch=0;html=1;dashed=0;whitespace=wrap;fillColor=#2875E2;strokeColor=#ffffff;points=[[0.005,0.63,0],[0.1,0.2,0],[0.9,0.2,0],[0.5,0,0],[0.995,0.63,0],[0.72,0.99,0],[0.5,1,0],[0.28,0.99,0]];verticalLabelPosition=bottom;align=center;verticalAlign=top;shape=mxgraph.kubernetes.icon;prIcon=pod" vertex="1" parent="84fUuEfoQeRxNVpQwfGD-35">
          <mxGeometry x="1996" y="1326" width="50" height="48" as="geometry" />
        </mxCell>
        <mxCell id="84fUuEfoQeRxNVpQwfGD-278" value="S3 Buckets" style="sketch=0;outlineConnect=0;fontColor=#232F3E;gradientColor=none;fillColor=#3F8624;strokeColor=none;dashed=0;verticalLabelPosition=bottom;verticalAlign=top;align=center;html=1;fontSize=12;fontStyle=0;aspect=fixed;pointerEvents=1;shape=mxgraph.aws4.bucket;" vertex="1" parent="84fUuEfoQeRxNVpQwfGD-35">
          <mxGeometry x="2333" y="2069.75" width="75" height="78" as="geometry" />
        </mxCell>
        <mxCell id="84fUuEfoQeRxNVpQwfGD-277" value="Amazon Elastic File System" style="sketch=0;outlineConnect=0;fontColor=#232F3E;gradientColor=none;strokeColor=#ffffff;fillColor=#232F3E;dashed=0;verticalLabelPosition=middle;verticalAlign=bottom;align=center;html=1;whiteSpace=wrap;fontSize=10;fontStyle=1;spacing=3;shape=mxgraph.aws4.productIcon;prIcon=mxgraph.aws4.elastic_file_system;" vertex="1" parent="84fUuEfoQeRxNVpQwfGD-35">
          <mxGeometry x="2220" y="2067" width="80" height="110" as="geometry" />
        </mxCell>
        <mxCell id="84fUuEfoQeRxNVpQwfGD-276" value="Amazon Elastic Block Store" style="sketch=0;outlineConnect=0;fontColor=#232F3E;gradientColor=none;strokeColor=#ffffff;fillColor=#232F3E;dashed=0;verticalLabelPosition=middle;verticalAlign=bottom;align=center;html=1;whiteSpace=wrap;fontSize=10;fontStyle=1;spacing=3;shape=mxgraph.aws4.productIcon;prIcon=mxgraph.aws4.elastic_block_store;" vertex="1" parent="84fUuEfoQeRxNVpQwfGD-35">
          <mxGeometry x="2111" y="2067" width="80" height="110" as="geometry" />
        </mxCell>
        <mxCell id="84fUuEfoQeRxNVpQwfGD-279" style="edgeStyle=orthogonalEdgeStyle;rounded=0;orthogonalLoop=1;jettySize=auto;html=1;" edge="1" parent="84fUuEfoQeRxNVpQwfGD-35" source="84fUuEfoQeRxNVpQwfGD-210" target="84fUuEfoQeRxNVpQwfGD-276">
          <mxGeometry relative="1" as="geometry">
            <Array as="points">
              <mxPoint x="2303" y="1874" />
              <mxPoint x="2151" y="1874" />
            </Array>
          </mxGeometry>
        </mxCell>
        <mxCell id="84fUuEfoQeRxNVpQwfGD-280" style="edgeStyle=orthogonalEdgeStyle;rounded=0;orthogonalLoop=1;jettySize=auto;html=1;" edge="1" parent="84fUuEfoQeRxNVpQwfGD-35" source="84fUuEfoQeRxNVpQwfGD-210" target="84fUuEfoQeRxNVpQwfGD-277">
          <mxGeometry relative="1" as="geometry">
            <Array as="points">
              <mxPoint x="2303" y="1874" />
              <mxPoint x="2351" y="1874" />
              <mxPoint x="2351" y="1963" />
              <mxPoint x="2260" y="1963" />
            </Array>
          </mxGeometry>
        </mxCell>
        <mxCell id="84fUuEfoQeRxNVpQwfGD-281" style="edgeStyle=orthogonalEdgeStyle;rounded=0;orthogonalLoop=1;jettySize=auto;html=1;" edge="1" parent="84fUuEfoQeRxNVpQwfGD-35" source="84fUuEfoQeRxNVpQwfGD-210" target="84fUuEfoQeRxNVpQwfGD-278">
          <mxGeometry relative="1" as="geometry">
            <Array as="points">
              <mxPoint x="2303" y="1874" />
              <mxPoint x="2371" y="1874" />
            </Array>
          </mxGeometry>
        </mxCell>
        <mxCell id="84fUuEfoQeRxNVpQwfGD-291" style="edgeStyle=orthogonalEdgeStyle;rounded=0;orthogonalLoop=1;jettySize=auto;html=1;" edge="1" parent="84fUuEfoQeRxNVpQwfGD-35" source="84fUuEfoQeRxNVpQwfGD-282" target="84fUuEfoQeRxNVpQwfGD-283">
          <mxGeometry relative="1" as="geometry" />
        </mxCell>
        <mxCell id="84fUuEfoQeRxNVpQwfGD-282" value="KMS" style="sketch=0;points=[[0,0,0],[0.25,0,0],[0.5,0,0],[0.75,0,0],[1,0,0],[0,1,0],[0.25,1,0],[0.5,1,0],[0.75,1,0],[1,1,0],[0,0.25,0],[0,0.5,0],[0,0.75,0],[1,0.25,0],[1,0.5,0],[1,0.75,0]];outlineConnect=0;fontColor=#232F3E;gradientColor=#F54749;gradientDirection=north;fillColor=#C7131F;strokeColor=#ffffff;dashed=0;verticalLabelPosition=bottom;verticalAlign=top;align=center;html=1;fontSize=12;fontStyle=0;aspect=fixed;shape=mxgraph.aws4.resourceIcon;resIcon=mxgraph.aws4.key_management_service;" vertex="1" parent="84fUuEfoQeRxNVpQwfGD-35">
          <mxGeometry x="256.5" y="241" width="78" height="78" as="geometry" />
        </mxCell>
        <mxCell id="84fUuEfoQeRxNVpQwfGD-288" style="edgeStyle=orthogonalEdgeStyle;rounded=0;orthogonalLoop=1;jettySize=auto;html=1;entryX=0;entryY=0.5;entryDx=0;entryDy=0;fillColor=#e51400;strokeColor=#B20000;" edge="1" parent="84fUuEfoQeRxNVpQwfGD-35" source="84fUuEfoQeRxNVpQwfGD-283" target="84fUuEfoQeRxNVpQwfGD-17">
          <mxGeometry relative="1" as="geometry">
            <mxPoint x="767" y="621" as="targetPoint" />
            <Array as="points">
              <mxPoint x="494" y="285" />
              <mxPoint x="494" y="622" />
            </Array>
          </mxGeometry>
        </mxCell>
        <mxCell id="84fUuEfoQeRxNVpQwfGD-283" value="&lt;div&gt;Key for&lt;/div&gt;&lt;div&gt;&lt;b&gt;etcd&lt;/b&gt; encryption&lt;br&gt;&lt;/div&gt;" style="sketch=0;outlineConnect=0;fontColor=#232F3E;gradientColor=none;fillColor=#BF0816;strokeColor=none;dashed=0;verticalLabelPosition=bottom;verticalAlign=top;align=center;html=1;fontSize=12;fontStyle=0;aspect=fixed;pointerEvents=1;shape=mxgraph.aws4.data_encryption_key;" vertex="1" parent="84fUuEfoQeRxNVpQwfGD-35">
          <mxGeometry x="409.5" y="241" width="62" height="78" as="geometry" />
        </mxCell>
        <mxCell id="84fUuEfoQeRxNVpQwfGD-290" style="edgeStyle=orthogonalEdgeStyle;rounded=0;orthogonalLoop=1;jettySize=auto;html=1;fillColor=#f8cecc;strokeColor=#b85450;" edge="1" parent="84fUuEfoQeRxNVpQwfGD-35" source="84fUuEfoQeRxNVpQwfGD-289" target="1qa2345JDhDKehQNPxXo-71">
          <mxGeometry relative="1" as="geometry">
            <Array as="points">
              <mxPoint x="522" y="155" />
              <mxPoint x="522" y="1255" />
            </Array>
          </mxGeometry>
        </mxCell>
        <mxCell id="84fUuEfoQeRxNVpQwfGD-289" value="ECR read role" style="sketch=0;outlineConnect=0;fontColor=#232F3E;gradientColor=none;fillColor=#BF0816;strokeColor=none;dashed=0;verticalLabelPosition=bottom;verticalAlign=top;align=center;html=1;fontSize=12;fontStyle=0;aspect=fixed;pointerEvents=1;shape=mxgraph.aws4.role;" vertex="1" parent="84fUuEfoQeRxNVpQwfGD-35">
          <mxGeometry x="401.5" y="122" width="78" height="44" as="geometry" />
        </mxCell>
        <mxCell id="84fUuEfoQeRxNVpQwfGD-293" style="edgeStyle=orthogonalEdgeStyle;rounded=0;orthogonalLoop=1;jettySize=auto;html=1;fillColor=#f8cecc;strokeColor=#b85450;" edge="1" parent="84fUuEfoQeRxNVpQwfGD-35" source="84fUuEfoQeRxNVpQwfGD-292" target="1qa2345JDhDKehQNPxXo-71">
          <mxGeometry relative="1" as="geometry">
            <mxPoint x="726" y="1245" as="targetPoint" />
            <Array as="points">
              <mxPoint x="523" y="82" />
              <mxPoint x="523" y="1254" />
            </Array>
          </mxGeometry>
        </mxCell>
        <mxCell id="84fUuEfoQeRxNVpQwfGD-292" value="EKS Node role" style="sketch=0;outlineConnect=0;fontColor=#232F3E;gradientColor=none;fillColor=#BF0816;strokeColor=none;dashed=0;verticalLabelPosition=bottom;verticalAlign=top;align=center;html=1;fontSize=12;fontStyle=0;aspect=fixed;pointerEvents=1;shape=mxgraph.aws4.role;" vertex="1" parent="84fUuEfoQeRxNVpQwfGD-35">
          <mxGeometry x="405" y="47" width="78" height="44" as="geometry" />
        </mxCell>
        <mxCell id="84fUuEfoQeRxNVpQwfGD-146" style="edgeStyle=orthogonalEdgeStyle;rounded=0;orthogonalLoop=1;jettySize=auto;html=1;fillColor=#6a00ff;strokeColor=#3700CC;" edge="1" parent="1" source="84fUuEfoQeRxNVpQwfGD-141" target="84fUuEfoQeRxNVpQwfGD-78">
          <mxGeometry relative="1" as="geometry">
            <Array as="points">
              <mxPoint x="1657" y="-871" />
            </Array>
          </mxGeometry>
        </mxCell>
        <mxCell id="84fUuEfoQeRxNVpQwfGD-141" value="&lt;b&gt;Kubectl&lt;/b&gt;" style="image;sketch=0;aspect=fixed;html=1;points=[];align=left;fontSize=12;image=img/lib/mscae/Kubernetes.svg;labelPosition=right;verticalLabelPosition=middle;verticalAlign=middle;" vertex="1" parent="1">
          <mxGeometry x="-156" y="-842" width="50" height="48" as="geometry" />
        </mxCell>
        <mxCell id="84fUuEfoQeRxNVpQwfGD-143" value="&amp;nbsp;" style="text;whiteSpace=wrap;html=1;" vertex="1" parent="1">
          <mxGeometry x="45.545454545454504" y="-1012.0000000000002" width="31" height="36" as="geometry" />
        </mxCell>
      </root>
    </mxGraphModel>
  </diagram>
</mxfile>
